<?xml version="1.0" encoding="utf-8"?>
<!-- Generator: Adobe Illustrator 25.4.1, SVG Export Plug-In . SVG Version: 6.00 Build 0)  -->
<svg version="1.1" id="Layer_1" xmlns="http://www.w3.org/2000/svg" xmlns:xlink="http://www.w3.org/1999/xlink" x="0px" y="0px"
	 viewBox="0 0 137.3 62.7" style="enable-background:new 0 0 137.3 62.7;" xml:space="preserve">
<style type="text/css">
	.st0{enable-background:new    ;}
	.st1{fill:#FFFFFF;}
</style>
<g class="st0">
	<path class="st1" d="M7.1,2.5L3,13.8h4V16H0.2v-2.1L4.4,2.5H0.7V0.4h6.5L7.1,2.5L7.1,2.5z"/>
	<path class="st1" d="M8.6,16V0.4h6.3v2.1h-3.6V7h2.6v2.1h-2.6v4.7h3.6V16H8.6z"/>
	<path class="st1" d="M21.5,16L19,8.8V16h-2.6V0.4h3.8c1.3,0,2.2,0.3,2.8,0.9c0.6,0.6,0.9,1.5,0.9,2.6v2c0,1.7-0.7,2.7-2.1,3
		l2.5,7.1H21.5z M19.9,2.5H19v4.9h0.9c0.9,0,1.3-0.4,1.3-1.3V3.8C21.2,2.9,20.8,2.5,19.9,2.5z"/>
	<path class="st1" d="M29.3,16.2c-1.3,0-2.3-0.4-3-1.2s-1-1.8-1-3.1V4.4c0-1.3,0.3-2.3,1-3.1s1.7-1.1,3-1.1s2.3,0.4,3,1.1
		c0.7,0.8,1,1.8,1,3.1V12c0,1.3-0.3,2.3-1,3.1C31.7,15.8,30.7,16.2,29.3,16.2z M29.3,14c0.9,0,1.4-0.5,1.4-1.6V4
		c0-1.1-0.5-1.6-1.4-1.6C28.5,2.4,28,2.9,28,4v8.4C28,13.4,28.5,14,29.3,14z"/>
</g>
<g class="st0">
	<path class="st1" d="M5.6,39v-6.9H3V39H0.4V23.4H3V30h2.5v-6.6h2.6V39H5.6z"/>
	<path class="st1" d="M15,23.4h2.4v11.8c0,2.7-1.2,4-3.7,4c-2.6,0-3.9-1.3-3.9-4V23.4h2.6v12.1c0,1,0.4,1.5,1.3,1.5s1.3-0.5,1.3-1.5
		V23.4z"/>
	<path class="st1" d="M24.4,39l-3.1-9.8V39h-2.2V23.4h2.6l2.8,9v-9h2.2V39H24.4z"/>
	<path class="st1" d="M32.2,32.7v-2.1H36V39h-1.9v-1.7c-0.4,1.3-1.2,1.9-2.5,1.9c-1.1,0-1.9-0.4-2.5-1.2s-0.8-1.8-0.8-3.1v-7.6
		c0-1.3,0.3-2.3,1-3.1c0.7-0.8,1.6-1.1,3-1.1c1.4,0,2.3,0.3,2.9,1c0.6,0.7,0.9,1.6,0.9,2.9v1.4h-2.4v-1.6c0-1-0.4-1.5-1.3-1.5
		c-0.9,0-1.4,0.5-1.4,1.6v8.4c0,1.1,0.4,1.6,1.3,1.6s1.3-0.5,1.3-1.5v-2.8h-1.4V32.7z"/>
	<path class="st1" d="M37.6,39V23.4h6.3v2.1h-3.6V30h2.6v2.1h-2.6v4.7h3.6V39H37.6z"/>
	<path class="st1" d="M50.5,39L48,31.8V39h-2.6V23.4h3.8c1.3,0,2.2,0.3,2.8,0.9s0.9,1.5,0.9,2.6v2c0,1.7-0.7,2.7-2.1,3l2.5,7.1H50.5
		z M48.9,25.5H48v4.9h0.9c0.9,0,1.3-0.4,1.3-1.3v-2.3C50.2,26,49.7,25.5,48.9,25.5z"/>
</g>
</svg>
