<?xml version="1.0" encoding="utf-8"?>
<!-- Generator: Adobe Illustrator 25.4.1, SVG Export Plug-In . SVG Version: 6.00 Build 0)  -->
<svg version="1.1" id="Layer_1" xmlns="http://www.w3.org/2000/svg" xmlns:xlink="http://www.w3.org/1999/xlink" x="0px" y="0px"
	 viewBox="0 0 137.3 62.7" style="enable-background:new 0 0 137.3 62.7;" xml:space="preserve">
<style type="text/css">
	.st0{enable-background:new    ;}
	.st1{fill:#FFFFFF;}
</style>
<g id="_x33_" transform="scale(0.94)">
	<g class="st0">
		<path class="st1" d="M4.7,10.3V8.1h4V17h-2v-1.8c-0.4,1.3-1.3,2-2.7,2c-1.2,0-2-0.4-2.6-1.2c-0.6-0.8-0.9-1.9-0.9-3.3v-8
			c0-1.4,0.3-2.5,1-3.3s1.7-1.2,3.1-1.2c1.5,0,2.5,0.4,3.1,1.1S8.6,3,8.6,4.4v1.5H6.1V4.1c0-1.1-0.5-1.6-1.4-1.6
			c-1,0-1.4,0.6-1.4,1.7v8.9c0,1.1,0.5,1.7,1.4,1.7S6,14.3,6,13.3v-2.9L4.7,10.3L4.7,10.3z"/>
		<path class="st1" d="M14.6,17.2c-1.4,0-2.5-0.4-3.2-1.2c-0.7-0.8-1.1-1.9-1.1-3.3v-8c0-1.4,0.4-2.5,1.1-3.3
			c0.7-0.8,1.8-1.2,3.2-1.2s2.5,0.4,3.2,1.2s1.1,1.9,1.1,3.3v8c0,1.4-0.4,2.4-1.1,3.3C17,16.8,16,17.2,14.6,17.2z M14.6,14.9
			c1,0,1.4-0.6,1.4-1.7v-9c0-1.1-0.5-1.7-1.4-1.7s-1.4,0.6-1.4,1.7v8.9C13.1,14.3,13.6,14.9,14.6,14.9z"/>
		<path class="st1" d="M24.7,17.2c-1.4,0-2.5-0.4-3.2-1.2c-0.7-0.8-1.1-1.9-1.1-3.3v-8c0-1.4,0.4-2.5,1.1-3.3s1.8-1.2,3.2-1.2
			c1.4,0,2.5,0.4,3.2,1.2S29,3.3,29,4.7v8c0,1.4-0.4,2.4-1.1,3.3C27.2,16.8,26.1,17.2,24.7,17.2z M24.7,14.9c1,0,1.4-0.6,1.4-1.7v-9
			c0-1.1-0.5-1.7-1.4-1.7s-1.4,0.6-1.4,1.7v8.9C23.3,14.3,23.8,14.9,24.7,14.9z"/>
		<path class="st1" d="M35,0.4c2.7,0,4,1.5,4,4.5v7.7c0,3-1.3,4.5-4,4.5h-4.3V0.4H35z M33.5,14.7h1.2c1.1,0,1.6-0.6,1.6-1.7V4.3
			c0-1.1-0.5-1.7-1.6-1.7h-1.2V14.7z"/>
		<path class="st1" d="M49.5,17V9.7h-2.7V17H44V0.4h2.8v7h2.7v-7h2.8V17H49.5z"/>
		<path class="st1" d="M54.1,17V0.4h6.7v2.3h-3.9v4.8h2.8v2.3h-2.8v5h3.9V17H54.1z"/>
		<path class="st1" d="M64.6,17H62l3-16.6h3.2L71.4,17h-2.9L68,14h-3L64.6,17z M66.5,5.1l-1.1,6.7h2.2L66.5,5.1L66.5,5.1z"/>
		<path class="st1" d="M72.7,17V0.4h2.8v14.3h3.3V17H72.7z"/>
		<path class="st1" d="M78.3,2.7V0.4h7.4v2.3h-2.3V17h-2.8V2.7H78.3z"/>
		<path class="st1" d="M92.6,17V9.7h-2.7V17h-2.8V0.4h2.8v7h2.7v-7h2.8V17H92.6z"/>
	</g>
	<g class="st0">
		<path class="st1" d="M2.7,41.5H0l3.1-16.6h3.2l3.2,16.6H6.6l-0.5-3h-3L2.7,41.5z M4.6,29.6l-1.1,6.7h2.2L4.6,29.6L4.6,29.6z"/>
		<path class="st1" d="M16.4,41.5l-3.3-10.4v10.4h-2.4V24.9h2.7l3,9.5v-9.5h2.3v16.6H16.4z"/>
		<path class="st1" d="M24.9,24.9c2.7,0,4,1.5,4,4.5V37c0,3-1.3,4.5-4,4.5h-4.3V24.9H24.9z M23.4,39.2h1.2c1.1,0,1.6-0.6,1.6-1.7
			v-8.7c0-1.1-0.5-1.7-1.6-1.7h-1.2V39.2z"/>
		<path class="st1" d="M40,31.2L40,31.2l-1.6,10.3h-2.6l-2.2-16.6h2.7l1.3,10.5l0,0L39,24.9h2.3l1.5,10.5l0,0l1.3-10.5h2.4
			l-2.2,16.6h-2.6L40,31.2z"/>
		<path class="st1" d="M47.8,41.5V24.9h6.7v2.3h-3.9V32h2.8v2.3h-2.8v5h3.9v2.3L47.8,41.5L47.8,41.5z"/>
		<path class="st1" d="M56,41.5V24.9h2.8v14.3h3.3v2.3H56z"/>
		<path class="st1" d="M63.6,41.5V24.9h2.8v14.3h3.3v2.3H63.6z"/>
		<path class="st1" d="M69.2,33.9v-2.3h3.9v2.3H69.2z"/>
		<path class="st1" d="M74.7,41.5V24.9h4c1.4,0,2.3,0.3,2.9,0.9s0.8,1.5,0.8,2.7v1.7c0,1.4-0.6,2.3-1.7,2.6c1.4,0.3,2.1,1.2,2.1,2.8
			v2.2c0,1.2-0.3,2.1-0.9,2.7c-0.6,0.6-1.6,0.9-2.9,0.9L74.7,41.5L74.7,41.5z M77.4,27.2v4.7h1c0.9,0,1.3-0.4,1.3-1.3v-2
			c0-0.9-0.4-1.3-1.3-1.3h-1V27.2z M78.6,34h-1.2v5.2h1.2c0.9,0,1.4-0.4,1.4-1.3v-2.5C80,34.5,79.6,34,78.6,34z"/>
		<path class="st1" d="M84.4,41.5V24.9H91v2.3h-3.9V32h2.8v2.3h-2.8v5H91v2.3L84.4,41.5L84.4,41.5z"/>
		<path class="st1" d="M92.6,41.5V24.9h2.8v16.6H92.6z"/>
		<path class="st1" d="M102.8,41.5l-3.3-10.4v10.4h-2.4V24.9h2.7l3,9.5v-9.5h2.3v16.6H102.8z"/>
		<path class="st1" d="M111.2,34.8v-2.2h4v8.9h-2v-1.8c-0.4,1.3-1.3,2-2.7,2c-1.2,0-2-0.4-2.6-1.2s-0.9-1.9-0.9-3.3v-8
			c0-1.4,0.3-2.5,1-3.3s1.7-1.2,3.1-1.2c1.5,0,2.5,0.4,3.1,1.1s0.9,1.8,0.9,3.1v1.5h-2.5v-1.7c0-1.1-0.5-1.6-1.4-1.6
			c-1,0-1.4,0.6-1.4,1.7v8.9c0,1.1,0.5,1.7,1.4,1.7s1.4-0.5,1.4-1.6v-2.9h-1.4V34.8z"/>
	</g>
</g>
</svg>
