<?xml version="1.0" encoding="utf-8"?>
<!-- Generator: Adobe Illustrator 25.4.1, SVG Export Plug-In . SVG Version: 6.00 Build 0)  -->
<svg version="1.1" id="Layer_1" xmlns="http://www.w3.org/2000/svg" xmlns:xlink="http://www.w3.org/1999/xlink" x="0px" y="0px"
	 viewBox="0 0 137.3 62.7" style="enable-background:new 0 0 137.3 62.7;" xml:space="preserve">
<style type="text/css">
	.st0{enable-background:new    ;}
	.st1{fill:#FFFFFF;}
</style>
<g id="_x34_" transform="scale(0.94)">
	<g class="st0">
		<path class="st1" d="M8.9,19.1l-5.3-1V17c-2.1-0.4-3.2-1.8-3.2-4.3v-8c0-1.4,0.4-2.5,1.1-3.3s1.8-1.2,3.2-1.2s2.5,0.4,3.2,1.2
			S9,3.3,9,4.7v8c0,1.9-0.7,3.3-2.1,3.9l2,0.4V19.1z M3.6,14.5C3.8,14.9,4.2,15,4.7,15s0.8-0.2,1.1-0.5c0.2-0.3,0.4-0.7,0.4-1.2V4.2
			c0-1.1-0.5-1.7-1.4-1.7S3.4,3.1,3.4,4.2v9.1C3.2,13.8,3.4,14.2,3.6,14.5z"/>
		<path class="st1" d="M16.2,0.4h2.6V13c0,2.8-1.3,4.2-3.9,4.2c-2.8,0-4.2-1.4-4.2-4.2V0.4h2.8v12.8c0,1.1,0.5,1.6,1.4,1.6
			s1.4-0.5,1.4-1.6V0.4H16.2z"/>
		<path class="st1" d="M22.3,17h-2.6l3.1-16.6H26L29.1,17h-2.9l-0.5-3h-3L22.3,17z M24.2,5.1l-1.1,6.7h2.2L24.2,5.1L24.2,5.1z"/>
		<path class="st1" d="M30.4,17V0.4h2.8v14.3h3.3V17H30.4z"/>
		<path class="st1" d="M37.9,17V0.4h2.8V17H37.9z"/>
		<path class="st1" d="M42.1,2.7V0.4h7.4v2.3h-2.3V17h-2.8V2.7H42.1z"/>
		<path class="st1" d="M59.5,0.4l-3.1,10.3V17h-2.8v-6.3L50.5,0.4h2.9l1.7,6.3l0,0l1.7-6.3C56.8,0.4,59.5,0.4,59.5,0.4z"/>
	</g>
	<g class="st0">
		<path class="st1" d="M0.4,41.5V24.9h6.7v2.3H3.2V32H6v2.3H3.2v5h3.9v2.3L0.4,41.5L0.4,41.5z"/>
		<path class="st1" d="M13,24.9c2.7,0,4,1.5,4,4.5V37c0,3-1.3,4.5-4,4.5H8.7V24.9H13z M11.5,39.2h1.2c1.1,0,1.6-0.6,1.6-1.7v-8.7
			c0-1.1-0.5-1.7-1.6-1.7h-1.2V39.2z"/>
		<path class="st1" d="M24.3,24.9h2.6v12.6c0,2.8-1.3,4.2-3.9,4.2c-2.8,0-4.2-1.4-4.2-4.2V24.9h2.8v12.8c0,1.1,0.5,1.6,1.4,1.6
			s1.4-0.5,1.4-1.6L24.3,24.9L24.3,24.9z"/>
		<path class="st1" d="M32.8,41.7c-1.4,0-2.4-0.4-3.1-1.2s-1-1.9-1-3.3v-8c0-1.4,0.3-2.5,1-3.3s1.7-1.2,3.1-1.2
			c1.5,0,2.5,0.4,3.1,1.1s0.9,1.7,0.9,3.1v2h-2.5v-2.2c0-1.1-0.4-1.6-1.3-1.6c-0.9,0-1.4,0.6-1.4,1.7v8.9c0,1.1,0.5,1.7,1.4,1.7
			s1.3-0.5,1.3-1.6v-3.1h2.5v2.9C36.7,40.3,35.4,41.7,32.8,41.7z"/>
		<path class="st1" d="M40.3,41.5h-2.6l3.1-16.6H44l3.2,16.6h-2.9l-0.5-3h-3L40.3,41.5z M42.3,29.6l-1.1,6.7h2.2L42.3,29.6
			L42.3,29.6z"/>
		<path class="st1" d="M46.9,27.2v-2.3h7.4v2.3H52v14.3h-2.8V27.2H46.9z"/>
		<path class="st1" d="M55.7,41.5V24.9h2.8v16.6H55.7z"/>
		<path class="st1" d="M64.5,41.7c-1.4,0-2.5-0.4-3.2-1.2s-1.1-1.9-1.1-3.3v-8c0-1.4,0.4-2.5,1.1-3.3c0.7-0.8,1.8-1.2,3.2-1.2
			s2.5,0.4,3.2,1.2c0.7,0.8,1.1,1.9,1.1,3.3v8c0,1.4-0.4,2.4-1.1,3.3C67,41.3,65.9,41.7,64.5,41.7z M64.5,39.4c1,0,1.4-0.6,1.4-1.7
			v-8.9c0-1.1-0.5-1.7-1.4-1.7s-1.4,0.6-1.4,1.7v8.9C63.1,38.8,63.5,39.4,64.5,39.4z"/>
		<path class="st1" d="M76.1,41.5l-3.3-10.4v10.4h-2.4V24.9h2.7l3,9.5v-9.5h2.3v16.6H76.1z"/>
	</g>
</g>
</svg>
