<?xml version="1.0" encoding="utf-8"?>
<!-- Generator: Adobe Illustrator 25.4.1, SVG Export Plug-In . SVG Version: 6.00 Build 0)  -->
<svg version="1.1" id="Layer_1" xmlns="http://www.w3.org/2000/svg" xmlns:xlink="http://www.w3.org/1999/xlink" x="0px" y="0px"
	 viewBox="0 0 137.3 62.7" style="enable-background:new 0 0 137.3 62.7;" xml:space="preserve">
<style type="text/css">
	.st0{enable-background:new    ;}
	.st1{fill:#FFFFFF;}
</style>
<g id="_x35_" transform="scale(0.94)">
	<g class="st0">
		<path class="st1" d="M4.7,10.3V8.1h4V17h-2v-1.8c-0.4,1.3-1.3,2-2.7,2c-1.2,0-2-0.4-2.6-1.2c-0.6-0.8-0.9-1.9-0.9-3.3v-8
			c0-1.4,0.3-2.5,1-3.3s1.7-1.2,3.1-1.2c1.5,0,2.5,0.4,3.1,1.1S8.6,3,8.6,4.4v1.5H6.1V4.1c0-1.1-0.5-1.6-1.4-1.6
			c-1,0-1.4,0.6-1.4,1.7v8.9c0,1.1,0.5,1.7,1.4,1.7S6,14.3,6,13.3v-2.9L4.7,10.3L4.7,10.3z"/>
		<path class="st1" d="M10.3,17V0.4H17v2.3h-3.9v4.8h2.8v2.3h-2.8v5H17V17H10.3z"/>
		<path class="st1" d="M24.3,17L21,6.6V17h-2.4V0.4h2.7l3,9.5V0.4h2.3V17H24.3z"/>
		<path class="st1" d="M32.7,0.4c2.7,0,4,1.5,4,4.5v7.7c0,3-1.3,4.5-4,4.5h-4.3V0.4H32.7z M31.2,14.7h1.2c1.1,0,1.6-0.6,1.6-1.7V4.3
			c0-1.1-0.5-1.7-1.6-1.7h-1.2V14.7z"/>
		<path class="st1" d="M38.5,17V0.4h6.7v2.3h-3.9v4.8h2.8v2.3h-2.8v5h3.9V17H38.5z"/>
		<path class="st1" d="M52.2,17l-2.6-7.6V17h-2.8V0.4h4.1c1.4,0,2.3,0.3,2.9,1C54.4,2,54.7,3,54.7,4.2v2.1c0,1.8-0.7,2.9-2.2,3.2
			l2.7,7.5H52.2z M50.5,2.7h-0.9v5.2h0.9c0.9,0,1.4-0.5,1.4-1.4V4C51.9,3.1,51.4,2.7,50.5,2.7z"/>
	</g>
	<g class="st0">
		<path class="st1" d="M0.4,41.5V24.9h6.7v2.3H3.2V32H6v2.3H3.2v5h3.9v2.3L0.4,41.5L0.4,41.5z"/>
		<path class="st1" d="M16.9,43.6l-5.3-1v-1.1c-2.1-0.4-3.2-1.8-3.2-4.3v-8c0-1.4,0.4-2.5,1.1-3.3c0.7-0.8,1.8-1.2,3.2-1.2
			s2.5,0.4,3.2,1.2c0.7,0.8,1.1,1.9,1.1,3.3v8c0,1.9-0.7,3.3-2.1,3.9l2.1,0.4v2.1H16.9z M11.6,39c0.2,0.3,0.6,0.5,1.1,0.5
			s0.8-0.2,1.1-0.5c0.2-0.3,0.4-0.7,0.4-1.2v-9.1c0-1.1-0.5-1.7-1.4-1.7s-1.4,0.6-1.4,1.7v9.1C11.3,38.3,11.4,38.7,11.6,39z"/>
		<path class="st1" d="M24.2,24.9h2.6v12.6c0,2.8-1.3,4.2-3.9,4.2c-2.8,0-4.2-1.4-4.2-4.2V24.9h2.8v12.8c0,1.1,0.5,1.6,1.4,1.6
			s1.4-0.5,1.4-1.6L24.2,24.9L24.2,24.9z"/>
		<path class="st1" d="M30.3,41.5h-2.6l3.1-16.6H34l3.2,16.6h-2.9l-0.5-3h-3L30.3,41.5z M32.3,29.6l-1.1,6.7h2.2L32.3,29.6
			L32.3,29.6z"/>
		<path class="st1" d="M38.4,41.5V24.9h2.8v14.3h3.3v2.3H38.4z"/>
		<path class="st1" d="M45.9,41.5V24.9h2.8v16.6H45.9z"/>
		<path class="st1" d="M50.2,27.2v-2.3h7.4v2.3h-2.3v14.3h-2.8V27.2H50.2z"/>
		<path class="st1" d="M67.5,24.9l-3.1,10.3v6.3h-2.8v-6.3l-3.1-10.3h2.9l1.7,6.3l0,0l1.7-6.3C64.8,24.9,67.5,24.9,67.5,24.9z"/>
	</g>
</g>
</svg>
