<?xml version="1.0" encoding="utf-8"?>
<!-- Generator: Adobe Illustrator 25.4.1, SVG Export Plug-In . SVG Version: 6.00 Build 0)  -->
<svg version="1.1" id="Layer_1" xmlns="http://www.w3.org/2000/svg" xmlns:xlink="http://www.w3.org/1999/xlink" x="0px" y="0px"
	 viewBox="0 0 137.3 62.7" style="enable-background:new 0 0 137.3 62.7;" xml:space="preserve">
<style type="text/css">
	.st0{enable-background:new    ;}
	.st1{fill:#FFFFFF;}
</style>
<g id="_x36_" transform="scale(0.94)">
	<g class="st0">
		<path class="st1" d="M4.6,17.2c-1.4,0-2.4-0.4-3.1-1.2c-0.7-0.8-1-1.9-1-3.3v-8c0-1.4,0.3-2.5,1-3.3s1.7-1.2,3.1-1.2
			c1.5,0,2.5,0.4,3.1,1.1S8.6,3,8.6,4.4v2H6V4.1C6,3,5.6,2.5,4.7,2.5S3.3,3.1,3.3,4.2v8.9c0,1.1,0.5,1.7,1.4,1.7S6,14.3,6,13.2v-3.1
			h2.5V13C8.6,15.8,7.2,17.2,4.6,17.2z"/>
		<path class="st1" d="M10.2,17V0.4H13v14.3h3.3V17H10.2z"/>
		<path class="st1" d="M17.7,17V0.4h6.7v2.3h-3.9v4.8h2.8v2.3h-2.8v5h3.9V17H17.7z"/>
		<path class="st1" d="M28.2,17h-2.6l3.1-16.6h3.2L35,17h-2.9l-0.5-3h-3L28.2,17z M30.2,5.1l-1.1,6.7h2.2L30.2,5.1L30.2,5.1z"/>
		<path class="st1" d="M42,17L38.7,6.6V17h-2.4V0.4H39l3,9.5V0.4h2.3V17H42z"/>
		<path class="st1" d="M55.5,6.7L55.5,6.7L53.9,17h-2.6L49,0.4h2.7L53,10.9l0,0l1.4-10.5h2.3l1.5,10.5l0,0l1.3-10.5h2.4L59.8,17
			h-2.6L55.5,6.7z"/>
		<path class="st1" d="M64.5,17h-2.6L65,0.4h3.2L71.3,17h-2.9l-0.5-3h-3L64.5,17z M66.4,5.1l-1.1,6.7h2.2L66.4,5.1L66.4,5.1z"/>
		<path class="st1" d="M71,2.7V0.4h7.4v2.3h-2.3V17h-2.8V2.7H71z"/>
		<path class="st1" d="M79.9,17V0.4h6.7v2.3h-3.9v4.8h2.8v2.3h-2.8v5h3.9V17H79.9z"/>
		<path class="st1" d="M93.6,17L91,9.4V17h-2.8V0.4h4.1c1.4,0,2.3,0.3,2.9,1C95.8,2,96.1,3,96.1,4.2v2.1c0,1.8-0.7,2.9-2.2,3.2
			l2.7,7.5H93.6z M91.9,2.7H91v5.2h0.9c0.9,0,1.4-0.5,1.4-1.4V4C93.2,3.1,92.8,2.7,91.9,2.7z"/>
	</g>
	<g class="st0">
		<path class="st1" d="M2.7,41.5H0l3.1-16.6h3.2l3.2,16.6H6.6l-0.5-3h-3L2.7,41.5z M4.6,29.6l-1.1,6.7h2.2L4.6,29.6L4.6,29.6z"/>
		<path class="st1" d="M16.4,41.5l-3.3-10.4v10.4h-2.4V24.9h2.7l3,9.5v-9.5h2.3v16.6H16.4z"/>
		<path class="st1" d="M24.9,24.9c2.7,0,4,1.5,4,4.5V37c0,3-1.3,4.5-4,4.5h-4.3V24.9H24.9z M23.4,39.2h1.2c1.1,0,1.6-0.6,1.6-1.7
			v-8.7c0-1.1-0.5-1.7-1.6-1.7h-1.2V39.2z"/>
		<path class="st1" d="M37.7,41.7c-1.4,0-2.4-0.3-3-1s-1-1.6-1-2.8v-2.2h2.6V38c0,1,0.5,1.5,1.4,1.5c0.8,0,1.3-0.5,1.3-1.5v-0.6
			c0-0.5-0.1-0.9-0.3-1.2s-0.5-0.7-1-1.2l-1.6-1.6c-0.9-0.8-1.5-1.6-1.8-2.2s-0.5-1.4-0.5-2.3v-0.6c0-1.1,0.3-2,1-2.6
			c0.7-0.7,1.6-1,2.9-1c1.4,0,2.3,0.3,3,1c0.6,0.6,0.9,1.6,0.9,2.8v1.3h-2.5v-1.4c0-0.9-0.4-1.4-1.3-1.4s-1.3,0.5-1.3,1.4v0.3
			c0,0.4,0.1,0.8,0.3,1.1c0.2,0.3,0.5,0.7,1,1.2l1.8,1.8c0.8,0.8,1.4,1.6,1.8,2.1c0.3,0.6,0.5,1.3,0.5,2.2v0.8c0,1.2-0.3,2.1-1,2.8
			C40.1,41.3,39.1,41.7,37.7,41.7z"/>
		<path class="st1" d="M45.4,41.5h-2.6l3.1-16.6H49l3.2,16.6h-2.9l-0.5-3h-3L45.4,41.5z M47.3,29.6l-1.1,6.7h2.2L47.3,29.6
			L47.3,29.6z"/>
		<path class="st1" d="M59.1,41.5l-3.3-10.4v10.4h-2.4V24.9h2.7l3,9.5v-9.5h2.3v16.6H59.1z"/>
		<path class="st1" d="M63.3,41.5V24.9h2.8v16.6H63.3z"/>
		<path class="st1" d="M67.5,27.2v-2.3h7.4v2.3h-2.3v14.3h-2.8V27.2H67.5z"/>
		<path class="st1" d="M77.3,41.5h-2.6l3.1-16.6H81l3.2,16.6h-2.9l-0.5-3h-3L77.3,41.5z M79.3,29.6l-1.1,6.7h2.2L79.3,29.6
			L79.3,29.6z"/>
		<path class="st1" d="M83.9,27.2v-2.3h7.4v2.3H89v14.3h-2.8V27.2H83.9z"/>
		<path class="st1" d="M92.7,41.5V24.9h2.8v16.6H92.7z"/>
		<path class="st1" d="M101.5,41.7c-1.4,0-2.5-0.4-3.2-1.2s-1.1-1.9-1.1-3.3v-8c0-1.4,0.4-2.5,1.1-3.3s1.8-1.2,3.2-1.2
			c1.4,0,2.5,0.4,3.2,1.2c0.7,0.8,1.1,1.9,1.1,3.3v8c0,1.4-0.4,2.4-1.1,3.3C103.9,41.3,102.9,41.7,101.5,41.7z M101.5,39.4
			c1,0,1.4-0.6,1.4-1.7v-8.9c0-1.1-0.5-1.7-1.4-1.7s-1.4,0.6-1.4,1.7v8.9C100,38.8,100.5,39.4,101.5,39.4z"/>
		<path class="st1" d="M113,41.5l-3.3-10.4v10.4h-2.4V24.9h2.7l3,9.5v-9.5h2.3v16.6H113z"/>
	</g>
</g>
</svg>
