<?xml version="1.0" encoding="utf-8"?>
<!-- Generator: Adobe Illustrator 25.4.1, SVG Export Plug-In . SVG Version: 6.00 Build 0)  -->
<svg version="1.1" id="Layer_1" xmlns="http://www.w3.org/2000/svg" xmlns:xlink="http://www.w3.org/1999/xlink" x="0px" y="0px"
	 viewBox="0 0 137.3 62.7" style="enable-background:new 0 0 137.3 62.7;" xml:space="preserve">
<style type="text/css">
	.st0{enable-background:new    ;}
	.st1{fill:#FFFFFF;}
</style>
<g id="_x37_" transform="scale(0.94)">
	<g class="st0">
		<path class="st1" d="M2.7,17H0L3.1,0.4h3.2L9.5,17H6.6l-0.5-3h-3L2.7,17z M4.6,5.1l-1.1,6.7h2.2L4.6,5.1L4.6,5.1z"/>
		<path class="st1" d="M10.8,17V0.4h6.5v2.3h-3.7v4.8h2.8v2.3h-2.8V17H10.8z"/>
		<path class="st1" d="M18.7,17V0.4h6.5v2.3h-3.7v4.8h2.8v2.3h-2.8V17H18.7z"/>
		<path class="st1" d="M30.5,17.2c-1.4,0-2.5-0.4-3.2-1.2c-0.7-0.8-1.1-1.9-1.1-3.3v-8c0-1.4,0.4-2.5,1.1-3.3s1.8-1.2,3.2-1.2
			c1.4,0,2.5,0.4,3.2,1.2s1.1,1.9,1.1,3.3v8c0,1.4-0.4,2.4-1.1,3.3C33,16.8,31.9,17.2,30.5,17.2z M30.5,14.9c1,0,1.4-0.6,1.4-1.7v-9
			c0-1.1-0.5-1.7-1.4-1.7s-1.4,0.6-1.4,1.7v8.9C29.1,14.3,29.6,14.9,30.5,14.9z"/>
		<path class="st1" d="M41.9,17l-2.6-7.6V17h-2.8V0.4h4.1c1.4,0,2.3,0.3,2.9,1C44.1,2,44.4,3,44.4,4.2v2.1c0,1.8-0.7,2.9-2.2,3.2
			l2.7,7.5H41.9z M40.2,2.7h-0.9v5.2h0.9c0.9,0,1.4-0.5,1.4-1.4V4C41.6,3.1,41.1,2.7,40.2,2.7z"/>
		<path class="st1" d="M50.3,0.4c2.7,0,4,1.5,4,4.5v7.7c0,3-1.3,4.5-4,4.5H46V0.4H50.3z M48.8,14.7H50c1.1,0,1.6-0.6,1.6-1.7V4.3
			c0-1.1-0.5-1.7-1.6-1.7h-1.2V14.7z"/>
		<path class="st1" d="M57.9,17h-2.6l3.1-16.6h3.2L64.8,17h-2.9l-0.5-3h-3L57.9,17z M59.9,5.1l-1.1,6.7H61L59.9,5.1L59.9,5.1z"/>
		<path class="st1" d="M66,17V0.4h4c1.4,0,2.3,0.3,2.9,0.9s0.8,1.5,0.8,2.7v1.7c0,1.4-0.6,2.3-1.7,2.6c1.4,0.3,2.1,1.2,2.1,2.8v2.2
			c0,1.2-0.3,2.1-0.9,2.7s-1.6,0.9-2.9,0.9H66V17z M68.8,2.7v4.7h1c0.9,0,1.3-0.4,1.3-1.3V4c0-0.9-0.4-1.3-1.3-1.3H68.8z M70,9.5
			h-1.2v5.2H70c0.9,0,1.4-0.4,1.4-1.3v-2.5C71.4,10,71,9.5,70,9.5z"/>
		<path class="st1" d="M75.7,17V0.4h2.8v14.3h3.3V17H75.7z"/>
		<path class="st1" d="M83.3,17V0.4H90v2.3h-3.9v4.8h2.8v2.3h-2.8v5H90V17H83.3z"/>
		<path class="st1" d="M97,17h-2.6l3.1-16.6h3.2l3.2,16.6H101l-0.5-3h-3L97,17z M99,5.1l-1.1,6.7h2.2L99,5.1L99,5.1z"/>
		<path class="st1" d="M110.8,17l-3.3-10.4V17h-2.4V0.4h2.7l3,9.5V0.4h2.3V17H110.8z"/>
		<path class="st1" d="M119.3,0.4c2.7,0,4,1.5,4,4.5v7.7c0,3-1.3,4.5-4,4.5H115V0.4H119.3z M117.7,14.7h1.2c1.1,0,1.6-0.6,1.6-1.7
			V4.3c0-1.1-0.5-1.7-1.6-1.7h-1.2V14.7z"/>
	</g>
	<g class="st0">
		<path class="st1" d="M4.6,41.7c-1.4,0-2.4-0.4-3.1-1.2s-1-1.9-1-3.3v-8c0-1.4,0.3-2.5,1-3.3s1.7-1.2,3.1-1.2
			c1.5,0,2.5,0.4,3.1,1.1s0.9,1.7,0.9,3.1v2H6v-2.2C6,27.6,5.6,27,4.7,27s-1.4,0.6-1.4,1.7v8.9c0,1.1,0.5,1.7,1.4,1.7S6,38.8,6,37.7
			v-3.1h2.5v2.9C8.6,40.3,7.2,41.7,4.6,41.7z"/>
		<path class="st1" d="M10.2,41.5V24.9H13v14.3h3.3v2.3H10.2z"/>
		<path class="st1" d="M17.7,41.5V24.9h6.7v2.3h-3.9V32h2.8v2.3h-2.8v5h3.9v2.3L17.7,41.5L17.7,41.5z"/>
		<path class="st1" d="M28.2,41.5h-2.6l3.1-16.6h3.2L35,41.5h-2.9l-0.5-3h-3L28.2,41.5z M30.2,29.6l-1.1,6.7h2.2L30.2,29.6
			L30.2,29.6z"/>
		<path class="st1" d="M42,41.5l-3.3-10.4v10.4h-2.4V24.9H39l3,9.5v-9.5h2.3v16.6H42z"/>
		<path class="st1" d="M49.4,41.5V24.9h6.7v2.3h-3.9V32H55v2.3h-2.8v5h3.9v2.3L49.4,41.5L49.4,41.5z"/>
		<path class="st1" d="M63.3,41.5L60,31.1v10.4h-2.4V24.9h2.7l3,9.5v-9.5h2.3v16.6H63.3z"/>
		<path class="st1" d="M67.5,41.5V24.9h6.7v2.3h-3.9V32h2.8v2.3h-2.8v5h3.9v2.3L67.5,41.5L67.5,41.5z"/>
		<path class="st1" d="M81.2,41.5l-2.6-7.6v7.6h-2.8V24.9h4.1c1.4,0,2.3,0.3,2.9,1c0.6,0.6,0.9,1.6,0.9,2.8v2.1
			c0,1.8-0.7,2.9-2.2,3.2l2.7,7.5H81.2z M79.5,27.2h-0.9v5.2h0.9c0.9,0,1.4-0.5,1.4-1.4v-2.4C80.9,27.6,80.4,27.2,79.5,27.2z"/>
		<path class="st1" d="M89.5,34.8v-2.2h4v8.9h-2v-1.8c-0.4,1.3-1.3,2-2.7,2c-1.2,0-2-0.4-2.6-1.2s-0.9-1.9-0.9-3.3v-8
			c0-1.4,0.3-2.5,1-3.3s1.7-1.2,3.1-1.2c1.5,0,2.5,0.4,3.1,1.1s0.9,1.8,0.9,3.1v1.5H91v-1.7c0-1.1-0.5-1.6-1.4-1.6
			c-1,0-1.4,0.6-1.4,1.7v8.9c0,1.1,0.5,1.7,1.4,1.7s1.4-0.5,1.4-1.6v-2.9h-1.5V34.8z"/>
		<path class="st1" d="M103.1,24.9L100,35.2v6.3h-2.8v-6.3l-3.1-10.3H97l1.7,6.3l0,0l1.7-6.3C100.4,24.9,103.1,24.9,103.1,24.9z"/>
	</g>
</g>
</svg>
