<?xml version="1.0" encoding="utf-8"?>
<!-- Generator: Adobe Illustrator 25.4.1, SVG Export Plug-In . SVG Version: 6.00 Build 0)  -->
<svg version="1.1" id="Layer_1" xmlns="http://www.w3.org/2000/svg" xmlns:xlink="http://www.w3.org/1999/xlink" x="0px" y="0px"
	 viewBox="0 0 137.3 62.7" style="enable-background:new 0 0 137.3 62.7;" xml:space="preserve">
<style type="text/css">
	.st0{enable-background:new    ;}
	.st1{fill:#FFFFFF;}
</style>
<g id="_x38_" transform="scale(0.94)">
	<g class="st0">
		<path class="st1" d="M4.8,0.4c2.7,0,4,1.5,4,4.5v7.7c0,3-1.3,4.5-4,4.5H0.4V0.4H4.8z M3.2,14.7h1.2C5.5,14.7,6,14.2,6,13V4.3
			c0-1.1-0.5-1.7-1.6-1.7H3.2V14.7z"/>
		<path class="st1" d="M10.3,17V0.4H17v2.3h-3.9v4.8h2.8v2.3h-2.8v5H17V17H10.3z"/>
		<path class="st1" d="M22.3,17.2c-1.4,0-2.4-0.4-3.1-1.2c-0.7-0.8-1-1.9-1-3.3v-8c0-1.4,0.3-2.5,1-3.3s1.7-1.2,3.1-1.2
			c1.5,0,2.5,0.4,3.1,1.1s0.9,1.7,0.9,3.1v2h-2.5V4.1c0-1.1-0.4-1.6-1.3-1.6s-1.4,0.6-1.4,1.7v8.9c0,1.1,0.5,1.7,1.4,1.7
			s1.3-0.5,1.3-1.6v-3.1h2.5V13C26.3,15.8,25,17.2,22.3,17.2z"/>
		<path class="st1" d="M27.7,17V0.4h6.7v2.3h-3.9v4.8h2.8v2.3h-2.8v5h3.9V17H27.7z"/>
		<path class="st1" d="M41.4,17L38.2,6.6V17h-2.4V0.4h2.7l3,9.5V0.4h2.3V17H41.4z"/>
		<path class="st1" d="M45.1,2.7V0.4h7.4v2.3h-2.3V17h-2.8V2.7H45.1z"/>
		<path class="st1" d="M62.7,6.7L62.7,6.7L61.1,17h-2.6L56.3,0.4H59l1.3,10.5l0,0l1.4-10.5H64l1.5,10.5l0,0l1.3-10.5h2.4L67,17h-2.6
			L62.7,6.7z"/>
		<path class="st1" d="M74.3,17.2c-1.4,0-2.5-0.4-3.2-1.2c-0.7-0.8-1.1-1.9-1.1-3.3v-8c0-1.4,0.4-2.5,1.1-3.3s1.8-1.2,3.2-1.2
			c1.4,0,2.5,0.4,3.2,1.2s1.1,1.9,1.1,3.3v8c0,1.4-0.4,2.4-1.1,3.3C76.8,16.8,75.7,17.2,74.3,17.2z M74.3,14.9c1,0,1.4-0.6,1.4-1.7
			v-9c0-1.1-0.5-1.7-1.4-1.7s-1.4,0.6-1.4,1.7v8.9C72.9,14.3,73.3,14.9,74.3,14.9z"/>
		<path class="st1" d="M85.4,17l-2.6-7.6V17H80V0.4h4.1c1.4,0,2.3,0.3,2.9,1C87.6,2,87.9,3,87.9,4.2v2.1c0,1.8-0.7,2.9-2.2,3.2
			l2.7,7.5H85.4z M83.8,2.7h-0.9v5.2h0.9c0.9,0,1.4-0.5,1.4-1.4V4C85.1,3.1,84.7,2.7,83.8,2.7z"/>
		<path class="st1" d="M95.1,17l-2.9-8.1V17h-2.8V0.4h2.8v7.3l3-7.3H98l-3.2,7.5L98,17H95.1z"/>
		<path class="st1" d="M104.2,17h-2.6l3.1-16.6h3.2L111,17h-2.9l-0.5-3h-3L104.2,17z M106.1,5.1l-1.1,6.7h2.2L106.1,5.1L106.1,5.1z"
			/>
		<path class="st1" d="M117.7,17l-3.3-10.4V17H112V0.4h2.7l3,9.5V0.4h2.3V17H117.7z"/>
		<path class="st1" d="M126,0.4c2.7,0,4,1.5,4,4.5v7.7c0,3-1.3,4.5-4,4.5h-4.3V0.4H126z M124.5,14.7h1.2c1.1,0,1.6-0.6,1.6-1.7V4.3
			c0-1.1-0.5-1.7-1.6-1.7h-1.2V14.7z"/>
	</g>
	<g class="st0">
		<path class="st1" d="M0.4,41.5V24.9h6.7v2.3H3.2V32H6v2.3H3.2v5h3.9v2.3L0.4,41.5L0.4,41.5z"/>
		<path class="st1" d="M12.5,41.7c-1.4,0-2.4-0.4-3.1-1.2c-0.7-0.8-1-1.9-1-3.3v-8c0-1.4,0.3-2.5,1-3.3s1.7-1.2,3.1-1.2
			c1.5,0,2.5,0.4,3.1,1.1s0.9,1.7,0.9,3.1v2H14v-2.2c0-1.1-0.4-1.6-1.3-1.6c-0.9,0-1.4,0.6-1.4,1.7v8.9c0,1.1,0.5,1.7,1.4,1.7
			s1.3-0.5,1.3-1.6v-3.1h2.5v2.9C16.4,40.3,15.1,41.7,12.5,41.7z"/>
		<path class="st1" d="M22.1,41.7c-1.4,0-2.5-0.4-3.2-1.2s-1.1-1.9-1.1-3.3v-8c0-1.4,0.4-2.5,1.1-3.3s1.8-1.2,3.2-1.2
			c1.4,0,2.5,0.4,3.2,1.2c0.7,0.8,1.1,1.9,1.1,3.3v8c0,1.4-0.4,2.4-1.1,3.3C24.5,41.3,23.5,41.7,22.1,41.7z M22.1,39.4
			c1,0,1.4-0.6,1.4-1.7v-8.9c0-1.1-0.5-1.7-1.4-1.7s-1.4,0.6-1.4,1.7v8.9C20.6,38.8,21.1,39.4,22.1,39.4z"/>
		<path class="st1" d="M33.5,41.5l-3.3-10.4v10.4h-2.4V24.9h2.7l3,9.5v-9.5h2.3v16.6H33.5z"/>
		<path class="st1" d="M41.6,41.7c-1.4,0-2.5-0.4-3.2-1.2s-1.1-1.9-1.1-3.3v-8c0-1.4,0.4-2.5,1.1-3.3c0.7-0.8,1.8-1.2,3.2-1.2
			s2.5,0.4,3.2,1.2c0.7,0.8,1.1,1.9,1.1,3.3v8c0,1.4-0.4,2.4-1.1,3.3C44.1,41.3,43.1,41.7,41.6,41.7z M41.6,39.4
			c1,0,1.4-0.6,1.4-1.7v-8.9c0-1.1-0.5-1.7-1.4-1.7s-1.4,0.6-1.4,1.7v8.9C40.2,38.8,40.7,39.4,41.6,39.4z"/>
		<path class="st1" d="M55.1,41.5V30.7H55l-1.9,10.8h-1.3l-2.1-10.8l0,0v10.8h-2.3V24.9h3.3l1.8,9.4l0,0l1.6-9.4h3.5v16.6H55.1z"/>
		<path class="st1" d="M59.2,41.5V24.9H62v16.6H59.2z"/>
		<path class="st1" d="M67.7,41.7c-1.4,0-2.4-0.4-3.1-1.2c-0.7-0.8-1-1.9-1-3.3v-8c0-1.4,0.3-2.5,1-3.3c0.7-0.8,1.7-1.2,3.1-1.2
			c1.5,0,2.5,0.4,3.1,1.1s0.9,1.7,0.9,3.1v2H69v-2.2c0-1.1-0.4-1.6-1.3-1.6s-1.4,0.6-1.4,1.7v8.9c0,1.1,0.5,1.7,1.4,1.7
			s1.3-0.5,1.3-1.6v-3.1h2.5v2.9C71.6,40.3,70.3,41.7,67.7,41.7z"/>
		<path class="st1" d="M80.2,34.8v-2.2h4v8.9h-2v-1.8c-0.4,1.3-1.3,2-2.7,2c-1.2,0-2-0.4-2.6-1.2S76,38.6,76,37.2v-8
			c0-1.4,0.3-2.5,1-3.3s1.7-1.2,3.1-1.2c1.5,0,2.5,0.4,3.1,1.1s0.9,1.8,0.9,3.1v1.5h-2.5v-1.7c0-1.1-0.5-1.6-1.4-1.6
			c-1,0-1.4,0.6-1.4,1.7v8.9c0,1.1,0.5,1.7,1.4,1.7s1.4-0.5,1.4-1.6v-2.9h-1.4V34.8z"/>
		<path class="st1" d="M91.1,41.5l-2.6-7.6v7.6h-2.8V24.9h4.1c1.4,0,2.3,0.3,2.9,1c0.6,0.6,0.9,1.6,0.9,2.8v2.1
			c0,1.8-0.7,2.9-2.2,3.2l2.7,7.5H91.1z M89.4,27.2h-0.9v5.2h0.9c0.9,0,1.4-0.5,1.4-1.4v-2.4C90.8,27.6,90.3,27.2,89.4,27.2z"/>
		<path class="st1" d="M99.3,41.7c-1.4,0-2.5-0.4-3.2-1.2S95,38.6,95,37.2v-8c0-1.4,0.4-2.5,1.1-3.3s1.8-1.2,3.2-1.2
			c1.4,0,2.5,0.4,3.2,1.2c0.7,0.8,1.1,1.9,1.1,3.3v8c0,1.4-0.4,2.4-1.1,3.3C101.7,41.3,100.7,41.7,99.3,41.7z M99.3,39.4
			c1,0,1.4-0.6,1.4-1.7v-8.9c0-1.1-0.5-1.7-1.4-1.7s-1.4,0.6-1.4,1.7v8.9C97.8,38.8,98.3,39.4,99.3,39.4z"/>
		<path class="st1" d="M110.8,31.2L110.8,31.2l-1.6,10.3h-2.6l-2.2-16.6h2.7l1.3,10.5l0,0l1.4-10.5h2.3l1.5,10.5l0,0l1.3-10.5h2.4
			l-2.2,16.6h-2.6L110.8,31.2z"/>
		<path class="st1" d="M118.1,27.2v-2.3h7.4v2.3h-2.3v14.3h-2.8V27.2H118.1z"/>
		<path class="st1" d="M132.2,41.5v-7.3h-2.7v7.3h-2.8V24.9h2.8v7h2.7v-7h2.8v16.6H132.2z"/>
	</g>
</g>
</svg>
