<?xml version="1.0" encoding="utf-8"?>
<!-- Generator: Adobe Illustrator 25.4.1, SVG Export Plug-In . SVG Version: 6.00 Build 0)  -->
<svg version="1.1" id="Layer_1" xmlns="http://www.w3.org/2000/svg" xmlns:xlink="http://www.w3.org/1999/xlink" x="0px" y="0px"
	 viewBox="0 0 137.3 62.7" style="enable-background:new 0 0 137.3 62.7;" xml:space="preserve">
<style type="text/css">
	.st0{enable-background:new    ;}
	.st1{fill:#FFFFFF;}
</style>
<g id="_x39_" transform="scale(0.94)">
	<g class="st0">
		<path class="st1" d="M0.4,16V0.2h2.7V16H0.4z"/>
		<path class="st1" d="M9.6,16L6.4,6.1V16H4.2V0.2h2.6l2.9,9.1V0.2h2.2V16H9.6z"/>
		<path class="st1" d="M17.1,0.2c2.6,0,3.8,1.4,3.8,4.2v7.3c0,2.8-1.3,4.2-3.8,4.2H13V0.2H17.1z M15.7,13.8h1.1c1,0,1.5-0.5,1.5-1.6
			V3.9c0-1.1-0.5-1.6-1.5-1.6h-1.1C15.7,2.3,15.7,13.8,15.7,13.8z"/>
		<path class="st1" d="M27.3,0.2h2.4v11.9c0,2.7-1.2,4-3.7,4c-2.6,0-4-1.3-4-4V0.2h2.7v12.2c0,1,0.4,1.6,1.3,1.6s1.3-0.5,1.3-1.6
			C27.3,12.4,27.3,0.2,27.3,0.2z"/>
		<path class="st1" d="M34.5,16.2c-1.3,0-2.2-0.3-2.8-1c-0.6-0.6-0.9-1.5-0.9-2.6v-2.1h2.5v2.2c0,0.9,0.4,1.4,1.3,1.4
			c0.8,0,1.2-0.5,1.2-1.4V12c0-0.4-0.1-0.8-0.3-1.1s-0.5-0.7-0.9-1.1L33,8.2c-0.8-0.8-1.4-1.5-1.7-2.1C31,5.5,30.8,4.8,30.8,4V3.5
			c0-1,0.3-1.9,0.9-2.5s1.6-1,2.8-1c1.3,0,2.2,0.3,2.8,0.9s0.9,1.5,0.9,2.7v1.3h-2.4V3.5c0-0.9-0.4-1.3-1.3-1.3
			c-0.8,0-1.3,0.4-1.3,1.3v0.3c0,0.4,0.1,0.8,0.3,1c0.2,0.3,0.5,0.7,1,1.1l1.7,1.7c0.8,0.8,1.3,1.5,1.7,2s0.5,1.2,0.5,2.1v0.8
			c0,1.1-0.3,2-1,2.7C36.8,15.8,35.8,16.2,34.5,16.2z"/>
		<path class="st1" d="M38.7,2.4V0.2h7.1v2.2h-2.2V16h-2.7V2.4H38.7z"/>
		<path class="st1" d="M51.7,16l-2.5-7.2V16h-2.7V0.2h3.9c1.3,0,2.2,0.3,2.8,0.9s0.9,1.5,0.9,2.6v2c0,1.7-0.7,2.7-2.1,3l2.5,7.2
			h-2.8V16z M50.1,2.4h-0.9v4.9h0.9c0.9,0,1.3-0.4,1.3-1.3V3.6C51.4,2.8,51,2.4,50.1,2.4z"/>
		<path class="st1" d="M62.9,0.2L60,10v6h-2.7v-6l-3-9.8h2.8l1.6,6l0,0l1.6-6C60.3,0.2,62.9,0.2,62.9,0.2z"/>
		<path class="st1" d="M64.8,13.4v0.2l-1.4,3.6H62l0.3-3.8C62.3,13.4,64.8,13.4,64.8,13.4z"/>
		<path class="st1" d="M68.1,16V0.2h2.7V16H68.1z"/>
		<path class="st1" d="M77.3,16l-3.1-9.9V16H72V0.2h2.6l2.9,9.1V0.2h2.2V16H77.3z"/>
		<path class="st1" d="M86.1,16L83,6.1V16h-2.2V0.2h2.6l2.9,9.1V0.2h2.2V16H86.1z"/>
		<path class="st1" d="M93.5,16.2c-1.3,0-2.3-0.4-3-1.2s-1-1.8-1-3.1V4.3c0-1.3,0.3-2.3,1-3.1s1.7-1.2,3-1.2s2.4,0.4,3,1.2
			c0.7,0.8,1,1.8,1,3.1v7.6c0,1.3-0.3,2.3-1,3.1C95.9,15.8,94.9,16.2,93.5,16.2z M93.5,13.9c0.9,0,1.4-0.5,1.4-1.6V3.8
			c0-1.1-0.5-1.6-1.4-1.6s-1.4,0.5-1.4,1.6v8.5C92.2,13.4,92.6,13.9,93.5,13.9z"/>
		<path class="st1" d="M104.2,0.2h2.5l-3,15.8h-2.9l-3-15.8h2.7l1.8,11l0,0L104.2,0.2z"/>
		<path class="st1" d="M108.1,16h-2.5l3-15.8h3l3,15.8h-2.7l-0.5-2.9h-2.8L108.1,16z M109.9,4.6l-1,6.3h2.1L109.9,4.6L109.9,4.6z"/>
		<path class="st1" d="M113.8,2.4V0.2h7.1v2.2h-2.2V16H116V2.4H113.8z"/>
		<path class="st1" d="M121.7,16V0.2h2.7V16H121.7z"/>
		<path class="st1" d="M129.5,16.2c-1.3,0-2.3-0.4-3-1.2s-1-1.8-1-3.1V4.3c0-1.3,0.3-2.3,1-3.1s1.7-1.2,3-1.2s2.4,0.4,3,1.2
			c0.7,0.8,1,1.8,1,3.1v7.6c0,1.3-0.3,2.3-1,3.1C131.9,15.8,130.8,16.2,129.5,16.2z M129.5,13.9c0.9,0,1.4-0.5,1.4-1.6V3.8
			c0-1.1-0.5-1.6-1.4-1.6s-1.4,0.5-1.4,1.6v8.5C128.1,13.4,128.6,13.9,129.5,13.9z"/>
		<path class="st1" d="M140,16l-3.1-9.9V16h-2.2V0.2h2.6l2.9,9.1V0.2h2.2V16H140z"/>
	</g>
	<g class="st0">
		<path class="st1" d="M2.5,40.5H0l3-15.8h3l3,15.8H6.3l-0.5-2.9H3L2.5,40.5z M4.4,29.1l-1,6.3h2.1L4.4,29.1L4.4,29.1z"/>
		<path class="st1" d="M15.4,40.5l-3.1-9.9v9.9h-2.2V24.7h2.6l2.9,9.1v-9.1h2.2v15.8C17.8,40.5,15.4,40.5,15.4,40.5z"/>
		<path class="st1" d="M23.3,24.7c2.6,0,3.8,1.4,3.8,4.2v7.3c0,2.8-1.3,4.2-3.8,4.2h-4.1V24.7H23.3z M21.9,38.3H23
			c1,0,1.5-0.5,1.5-1.6v-8.3c0-1.1-0.5-1.6-1.5-1.6h-1.1V38.3z"/>
		<path class="st1" d="M31.5,40.5V24.7h2.7v15.8H31.5z"/>
		<path class="st1" d="M41,40.5l-3.1-9.9v9.9h-2.2V24.7h2.6l2.9,9.1v-9.1h2.2v15.8C43.4,40.5,41,40.5,41,40.5z"/>
		<path class="st1" d="M44.7,40.5V24.7H51v2.2h-3.6v4.5h2.7v2.1h-2.7v7H44.7z"/>
		<path class="st1" d="M57.2,40.5l-2.5-7.2v7.2H52V24.7h3.9c1.3,0,2.2,0.3,2.8,0.9s0.9,1.5,0.9,2.6v2c0,1.7-0.7,2.7-2.1,3l2.5,7.2
			L57.2,40.5L57.2,40.5z M55.6,26.9h-0.9v4.9h0.9c0.9,0,1.3-0.4,1.3-1.3v-2.3C56.9,27.3,56.5,26.9,55.6,26.9z"/>
		<path class="st1" d="M63.1,40.5h-2.5l3-15.8h3l3,15.8h-2.7l-0.5-2.9h-2.8L63.1,40.5z M64.9,29.1l-1,6.3H66L64.9,29.1L64.9,29.1z"
			/>
		<path class="st1" d="M74,40.7c-1.3,0-2.2-0.3-2.8-1c-0.6-0.6-0.9-1.5-0.9-2.6V35h2.5v2.2c0,0.9,0.4,1.4,1.3,1.4
			c0.8,0,1.2-0.5,1.2-1.4v-0.6c0-0.4-0.1-0.8-0.3-1.1c-0.2-0.3-0.5-0.7-0.9-1.1l-1.6-1.6c-0.8-0.8-1.4-1.5-1.7-2.1
			c-0.3-0.6-0.5-1.3-0.5-2.1V28c0-1,0.3-1.9,0.9-2.5s1.6-1,2.8-1c1.3,0,2.2,0.3,2.8,0.9c0.6,0.6,0.9,1.5,0.9,2.7v1.3h-2.4V28
			c0-0.9-0.4-1.3-1.3-1.3c-0.8,0-1.3,0.4-1.3,1.3v0.3c0,0.4,0.1,0.8,0.3,1c0.2,0.3,0.5,0.7,1,1.1l1.7,1.7c0.8,0.8,1.3,1.5,1.7,2
			s0.5,1.2,0.5,2.1V37c0,1.1-0.3,2-1,2.7C76.3,40.3,75.3,40.7,74,40.7z"/>
		<path class="st1" d="M78.6,26.9v-2.2h7.1v2.2h-2.2v13.6h-2.7V26.9H78.6z"/>
		<path class="st1" d="M91.9,40.5l-2.5-7.2v7.2h-2.7V24.7h3.9c1.3,0,2.2,0.3,2.8,0.9c0.6,0.6,0.9,1.5,0.9,2.6v2c0,1.7-0.7,2.7-2.1,3
			l2.5,7.2L91.9,40.5L91.9,40.5z M90.3,26.9h-0.9v4.9h0.9c0.9,0,1.3-0.4,1.3-1.3v-2.3C91.6,27.3,91.2,26.9,90.3,26.9z"/>
		<path class="st1" d="M101,24.7h2.4v11.9c0,2.7-1.2,4-3.7,4c-2.6,0-4-1.3-4-4V24.7h2.7v12.2c0,1,0.4,1.6,1.3,1.6s1.3-0.5,1.3-1.6
			C101,36.9,101,24.7,101,24.7z"/>
		<path class="st1" d="M108.8,40.7c-1.3,0-2.3-0.4-3-1.2s-1-1.8-1-3.1v-7.6c0-1.3,0.3-2.3,1-3.1c0.7-0.8,1.6-1.2,3-1.2
			s2.4,0.3,2.9,1c0.6,0.7,0.8,1.7,0.8,2.9v1.9h-2.4v-2.1c0-1-0.4-1.5-1.3-1.5s-1.3,0.5-1.3,1.6v8.5c0,1.1,0.4,1.6,1.3,1.6
			s1.3-0.5,1.3-1.5V34h2.4v2.7C112.6,39.3,111.3,40.7,108.8,40.7z"/>
		<path class="st1" d="M113.5,26.9v-2.2h7.1v2.2h-2.2v13.6h-2.7V26.9H113.5z"/>
		<path class="st1" d="M127,24.7h2.4v11.9c0,2.7-1.2,4-3.7,4c-2.6,0-4-1.3-4-4V24.7h2.7v12.2c0,1,0.4,1.6,1.3,1.6s1.3-0.5,1.3-1.6
			V24.7z"/>
		<path class="st1" d="M136,40.5l-2.5-7.2v7.2h-2.7V24.7h3.9c1.3,0,2.2,0.3,2.8,0.9s0.9,1.5,0.9,2.6v2c0,1.7-0.7,2.7-2.1,3l2.5,7.2
			L136,40.5L136,40.5z M134.4,26.9h-0.9v4.9h0.9c0.9,0,1.3-0.4,1.3-1.3v-2.3C135.7,27.3,135.3,26.9,134.4,26.9z"/>
		<path class="st1" d="M139.8,40.5V24.7h6.3v2.2h-3.7v4.5h2.6v2.1h-2.6v4.8h3.7v2.2H139.8z"/>
	</g>
</g>
</svg>
