<?xml version="1.0" encoding="utf-8"?>
<!-- Generator: Adobe Illustrator 25.4.1, SVG Export Plug-In . SVG Version: 6.00 Build 0)  -->
<svg version="1.1" id="Layer_1" xmlns="http://www.w3.org/2000/svg" xmlns:xlink="http://www.w3.org/1999/xlink" x="0px" y="0px"
	 viewBox="0 0 137.3 62.7" style="enable-background:new 0 0 137.3 62.7;" xml:space="preserve">
<style type="text/css">
	.st0{enable-background:new    ;}
	.st1{fill:#FFFFFF;}
</style>
<g id="_x31_0" transform="scale(0.94)">
	<g class="st0">
		<path class="st1" d="M5.9,17L3.2,9.4V17H0.4V0.4h4.1c1.4,0,2.3,0.3,2.9,1c0.7,0.6,1,1.5,1,2.7v2.1c0,1.8-0.7,2.9-2.2,3.2L8.8,17
			H5.9z M4.2,2.7h-1v5.2h0.9c0.9,0,1.4-0.5,1.4-1.4V4C5.5,3.1,5.1,2.7,4.2,2.7z"/>
		<path class="st1" d="M10,17V0.4h6.7v2.3h-3.9v4.8h2.8v2.3h-2.8v5h3.9V17H10z"/>
		<path class="st1" d="M22.6,0.4c2.7,0,4,1.5,4,4.5v7.7c0,3-1.3,4.5-4,4.5h-4.3V0.4H22.6z M21.1,14.7h1.2c1.1,0,1.6-0.6,1.6-1.7V4.3
			c0-1.1-0.5-1.7-1.6-1.7h-1.2V14.7z"/>
		<path class="st1" d="M33.9,0.4h2.6V13c0,2.8-1.3,4.2-3.9,4.2c-2.8,0-4.2-1.4-4.2-4.2V0.4h2.8v12.8c0,1.1,0.5,1.6,1.4,1.6
			s1.4-0.5,1.4-1.6L33.9,0.4L33.9,0.4z"/>
		<path class="st1" d="M42.3,17.2c-1.4,0-2.4-0.4-3.1-1.2c-0.7-0.8-1-1.9-1-3.3v-8c0-1.4,0.3-2.5,1-3.3s1.7-1.2,3.1-1.2
			c1.5,0,2.5,0.4,3.1,1.1s0.9,1.7,0.9,3.1v2h-2.5V4.1c0-1.1-0.4-1.6-1.3-1.6c-0.9,0-1.4,0.6-1.4,1.7v8.9c0,1.1,0.5,1.7,1.4,1.7
			s1.3-0.5,1.3-1.6v-3.1h2.5V13C46.3,15.8,45,17.2,42.3,17.2z"/>
		<path class="st1" d="M47.9,17V0.4h6.7v2.3h-3.9v4.8h2.8v2.3h-2.8v5h3.9V17H47.9z"/>
		<path class="st1" d="M60.5,0.4c2.7,0,4,1.5,4,4.5v7.7c0,3-1.3,4.5-4,4.5h-4.3V0.4H60.5z M59,14.7h1.2c1.1,0,1.6-0.6,1.6-1.7V4.3
			c0-1.1-0.5-1.7-1.6-1.7H59V14.7z"/>
	</g>
	<g class="st0">
		<path class="st1" d="M0.4,41.5V24.9h2.8v16.6H0.4z"/>
		<path class="st1" d="M10.6,41.5L7.3,31.1v10.4H5V24.9h2.7l3,9.5v-9.5H13v16.6H10.6z"/>
		<path class="st1" d="M14.8,41.5V24.9h6.7v2.3h-3.9V32h2.8v2.3h-2.8v5h3.9v2.3L14.8,41.5L14.8,41.5z"/>
		<path class="st1" d="M31.3,43.6l-5.3-1v-1.1c-2.1-0.4-3.2-1.8-3.2-4.3v-8c0-1.4,0.4-2.5,1.1-3.3s1.8-1.2,3.2-1.2
			c1.4,0,2.5,0.4,3.2,1.2c0.7,0.8,1.1,1.9,1.1,3.3v8c0,1.9-0.7,3.3-2.1,3.9l2.1,0.4v2.1H31.3z M26,39c0.2,0.3,0.6,0.5,1.1,0.5
			s0.8-0.2,1.1-0.5c0.2-0.3,0.4-0.7,0.4-1.2v-9.1c0-1.1-0.5-1.7-1.4-1.7s-1.4,0.6-1.4,1.7v9.1C25.6,38.3,25.7,38.7,26,39z"/>
		<path class="st1" d="M38.5,24.9h2.6v12.6c0,2.8-1.3,4.2-3.9,4.2c-2.8,0-4.2-1.4-4.2-4.2V24.9h2.8v12.8c0,1.1,0.5,1.6,1.4,1.6
			s1.4-0.5,1.4-1.6L38.5,24.9L38.5,24.9z"/>
		<path class="st1" d="M44.6,41.5H42l3.1-16.6h3.2l3.2,16.6h-2.9l-0.5-3h-3L44.6,41.5z M46.6,29.6l-1.1,6.7h2.2L46.6,29.6L46.6,29.6
			z"/>
		<path class="st1" d="M52.8,41.5V24.9h2.8v14.3h3.3v2.3H52.8z"/>
		<path class="st1" d="M60.3,41.5V24.9h2.8v16.6H60.3z"/>
		<path class="st1" d="M64.5,27.2v-2.3h7.4v2.3h-2.3v14.3h-2.8V27.2H64.5z"/>
		<path class="st1" d="M73.3,41.5V24.9h2.8v16.6H73.3z"/>
		<path class="st1" d="M77.9,41.5V24.9h6.7v2.3h-3.9V32h2.8v2.3h-2.8v5h3.9v2.3L77.9,41.5L77.9,41.5z"/>
		<path class="st1" d="M89.8,41.7c-1.4,0-2.4-0.3-3-1s-1-1.6-1-2.8v-2.2h2.6V38c0,1,0.5,1.5,1.4,1.5c0.8,0,1.3-0.5,1.3-1.5v-0.6
			c0-0.5-0.1-0.9-0.3-1.2c-0.2-0.3-0.5-0.7-1-1.2l-1.6-1.6c-0.9-0.8-1.5-1.6-1.8-2.2s-0.5-1.4-0.5-2.3v-0.6c0-1.1,0.3-2,1-2.6
			c0.7-0.7,1.6-1,2.9-1c1.4,0,2.3,0.3,3,1c0.6,0.6,0.9,1.6,0.9,2.8v1.3h-2.5v-1.4c0-0.9-0.4-1.4-1.3-1.4s-1.3,0.5-1.3,1.4v0.3
			c0,0.4,0.1,0.8,0.3,1.1c0.2,0.3,0.5,0.7,1,1.2l1.8,1.8c0.8,0.8,1.4,1.6,1.8,2.1c0.3,0.6,0.5,1.3,0.5,2.2v0.8c0,1.2-0.3,2.1-1,2.8
			C92.2,41.3,91.2,41.7,89.8,41.7z"/>
	</g>
</g>
</svg>
