<?xml version="1.0" encoding="utf-8"?>
<!-- Generator: Adobe Illustrator 25.4.1, SVG Export Plug-In . SVG Version: 6.00 Build 0)  -->
<svg version="1.1" id="Layer_1" xmlns="http://www.w3.org/2000/svg" xmlns:xlink="http://www.w3.org/1999/xlink" x="0px" y="0px"
	 viewBox="0 0 137.3 62.7" style="enable-background:new 0 0 137.3 62.7;" xml:space="preserve">
<style type="text/css">
	.st0{enable-background:new    ;}
	.st1{fill:#FFFFFF;}
</style>
<g id="_x31_1" transform="scale(0.94)">
	<g class="st0">
		<path class="st1" d="M4,16.2c-1.3,0-2.2-0.3-2.8-1c-0.6-0.6-0.9-1.5-0.9-2.6v-2.1h2.5v2.2C2.7,13.5,3.2,14,4,14s1.2-0.5,1.2-1.4
			V12c0-0.4-0.1-0.8-0.3-1.1C4.7,10.6,4.4,10.2,4,9.8L2.5,8.2C1.7,7.4,1.1,6.7,0.8,6.1C0.5,5.6,0.3,4.9,0.3,4V3.5
			c0-1,0.3-1.9,0.9-2.5C1.9,0.3,2.8,0,4,0c1.3,0,2.2,0.3,2.8,0.9s0.9,1.5,0.9,2.7v1.3H5.3V3.5c0-0.9-0.4-1.3-1.3-1.3
			S2.8,2.6,2.8,3.4v0.3c0,0.4,0.1,0.8,0.3,1c0.2,0.3,0.5,0.7,1,1.1l1.7,1.7c0.8,0.8,1.3,1.5,1.7,2C7.8,10.1,8,10.7,8,11.6v0.8
			c0,1.1-0.3,2-1,2.7S5.3,16.2,4,16.2z"/>
		<path class="st1" d="M14.5,0.2h2.4v11.9c0,2.7-1.2,4-3.7,4c-2.6,0-4-1.3-4-4V0.2h2.7v12.2c0,1,0.4,1.6,1.3,1.6s1.3-0.5,1.3-1.6
			V0.2z"/>
		<path class="st1" d="M22,16.2c-1.3,0-2.2-0.3-2.8-1c-0.6-0.6-0.9-1.5-0.9-2.6v-2.1h2.5v2.2c0,0.9,0.4,1.4,1.3,1.4
			c0.8,0,1.2-0.5,1.2-1.4V12c0-0.4-0.1-0.8-0.3-1.1c-0.2-0.3-0.5-0.7-0.9-1.1l-1.6-1.6c-0.8-0.8-1.4-1.5-1.7-2.1
			c-0.3-0.6-0.5-1.3-0.5-2.1V3.5c0-1,0.3-1.9,0.9-2.5s1.6-1,2.8-1c1.3,0,2.2,0.3,2.8,0.9c0.6,0.6,0.9,1.5,0.9,2.7v1.3h-2.4V3.5
			c0-0.9-0.4-1.3-1.3-1.3s-1.3,0.4-1.3,1.3v0.3c0,0.4,0.1,0.8,0.3,1c0.2,0.3,0.5,0.7,1,1.1l1.7,1.7c0.8,0.8,1.3,1.5,1.7,2
			c0.3,0.6,0.5,1.2,0.5,2.1v0.8c0,1.1-0.3,2-1,2.7C24.3,15.8,23.3,16.2,22,16.2z"/>
		<path class="st1" d="M26.6,2.4V0.2h7.1v2.2h-2.2V16h-2.7V2.4H26.6z"/>
		<path class="st1" d="M35.7,16h-2.5l3-15.8h3l3,15.8h-2.7L39,13.1h-2.8L35.7,16z M37.6,4.6l-1,6.3h2.1L37.6,4.6L37.6,4.6z"/>
		<path class="st1" d="M43.3,16V0.2H46V16H43.3z"/>
		<path class="st1" d="M52.8,16l-3.1-9.9V16h-2.2V0.2H50l2.9,9.1V0.2h2.2V16H52.8z"/>
		<path class="st1" d="M58.7,16h-2.5l3-15.8h3l3,15.8h-2.7L62,13.1h-2.8L58.7,16z M60.5,4.6l-1,6.3h2.1L60.5,4.6L60.5,4.6z"/>
		<path class="st1" d="M66.2,16V0.2H70c1.3,0,2.2,0.3,2.7,0.9s0.8,1.4,0.8,2.6v1.6c0,1.3-0.5,2.2-1.6,2.5c1.3,0.3,2,1.2,2,2.6v2.1
			c0,1.1-0.3,2-0.9,2.6S71.5,16,70.2,16H66.2z M68.9,2.4v4.5h0.9c0.8,0,1.3-0.4,1.3-1.3v-2c0-0.9-0.4-1.3-1.3-1.3h-0.9V2.4z M70,8.9
			h-1.1v4.9H70c0.9,0,1.3-0.4,1.3-1.3v-2.4C71.3,9.3,70.9,8.9,70,8.9z"/>
		<path class="st1" d="M75.3,16V0.2H78v13.6h3.2V16H75.3z"/>
		<path class="st1" d="M82.3,16V0.2h6.3v2.2h-3.7v4.5h2.6V9h-2.6v4.8h3.7V16H82.3z"/>
		<path class="st1" d="M96.8,16.2c-1.3,0-2.3-0.4-3-1.2s-1-1.8-1-3.1V4.3c0-1.3,0.3-2.3,1-3.1s1.6-1.2,3-1.2s2.4,0.3,2.9,1
			c0.6,0.7,0.8,1.7,0.8,2.9v1.9h-2.4V3.7c0-1-0.4-1.5-1.3-1.5s-1.4,0.5-1.4,1.6v8.5c0,1.1,0.4,1.6,1.4,1.6c0.9,0,1.3-0.5,1.3-1.5
			V9.5h2.4v2.7C100.5,14.8,99.3,16.2,96.8,16.2z"/>
		<path class="st1" d="M101.9,16V0.2h2.7V16H101.9z"/>
		<path class="st1" d="M105.7,2.4V0.2h7.1v2.2h-2.2V16h-2.7V2.4H105.7z"/>
		<path class="st1" d="M114,16V0.2h2.7V16H114z"/>
		<path class="st1" d="M118.1,16V0.2h6.3v2.2h-3.7v4.5h2.6V9h-2.6v4.8h3.7V16H118.1z"/>
		<path class="st1" d="M129.3,16.2c-1.3,0-2.2-0.3-2.8-1c-0.6-0.6-0.9-1.5-0.9-2.6v-2.1h2.5v2.2c0,0.9,0.4,1.4,1.3,1.4
			c0.8,0,1.2-0.5,1.2-1.4V12c0-0.4-0.1-0.8-0.3-1.1s-0.5-0.7-0.9-1.1l-1.6-1.6c-0.8-0.8-1.4-1.5-1.7-2.1c-0.3-0.6-0.5-1.3-0.5-2.1
			V3.5c0-1,0.3-1.9,0.9-2.5s1.6-1,2.8-1c1.3,0,2.2,0.3,2.8,0.9s0.9,1.5,0.9,2.7v1.3h-2.4V3.5c0-0.9-0.4-1.3-1.3-1.3
			c-0.8,0-1.3,0.4-1.3,1.3v0.3c0,0.4,0.1,0.8,0.3,1c0.2,0.3,0.5,0.7,1,1.1l1.7,1.7c0.8,0.8,1.3,1.5,1.7,2c0.3,0.6,0.5,1.2,0.5,2.1
			v0.8c0,1.1-0.3,2-1,2.7C131.6,15.8,130.6,16.2,129.3,16.2z"/>
	</g>
	<g class="st0">
		<path class="st1" d="M2.5,40.5H0l3-15.8h3l3,15.8H6.3l-0.5-2.9H3L2.5,40.5z M4.4,29.1l-1,6.3h2.1L4.4,29.1L4.4,29.1z"/>
		<path class="st1" d="M15.4,40.5l-3.1-9.9v9.9h-2.2V24.7h2.6l2.9,9.1v-9.1h2.2v15.8C17.8,40.5,15.4,40.5,15.4,40.5z"/>
		<path class="st1" d="M23.3,24.7c2.6,0,3.8,1.4,3.8,4.2v7.3c0,2.8-1.3,4.2-3.8,4.2h-4.1V24.7H23.3z M21.9,38.3H23
			c1,0,1.5-0.5,1.5-1.6v-8.3c0-1.1-0.5-1.6-1.5-1.6h-1.1V38.3z"/>
		<path class="st1" d="M35.4,40.7c-1.3,0-2.3-0.4-3-1.2s-1-1.8-1-3.1v-7.6c0-1.3,0.3-2.3,1-3.1c0.7-0.8,1.6-1.2,3-1.2s2.4,0.3,2.9,1
			c0.6,0.7,0.8,1.7,0.8,2.9v1.9h-2.4v-2.1c0-1-0.4-1.5-1.3-1.5c-0.9,0-1.4,0.5-1.4,1.6v8.5c0,1.1,0.4,1.6,1.4,1.6
			c0.9,0,1.3-0.5,1.3-1.5V34h2.4v2.7C39.2,39.3,37.9,40.7,35.4,40.7z"/>
		<path class="st1" d="M44.6,40.7c-1.3,0-2.3-0.4-3-1.2s-1-1.8-1-3.1v-7.6c0-1.3,0.3-2.3,1-3.1c0.7-0.8,1.7-1.2,3-1.2
			c1.4,0,2.4,0.4,3,1.2c0.7,0.8,1,1.8,1,3.1v7.6c0,1.3-0.3,2.3-1,3.1C46.9,40.3,45.9,40.7,44.6,40.7z M44.6,38.4
			c0.9,0,1.4-0.5,1.4-1.6v-8.5c0-1.1-0.5-1.6-1.4-1.6s-1.4,0.5-1.4,1.6v8.5C43.2,37.9,43.7,38.4,44.6,38.4z"/>
		<path class="st1" d="M57.4,40.5V30.2h-0.1l-1.8,10.2h-1.2l-2-10.2l0,0v10.2h-2.2V24.7h3.1l1.7,8.9l0,0l1.5-8.9h3.4v15.8H57.4z"/>
		<path class="st1" d="M68.6,40.5V30.2h-0.1l-1.8,10.2h-1.2l-2-10.2l0,0v10.2h-2.2V24.7h3.1l1.7,8.9l0,0l1.5-8.9H71v15.8H68.6z"/>
		<path class="st1" d="M77.7,24.7h2.4v11.9c0,2.7-1.2,4-3.7,4c-2.6,0-4-1.3-4-4V24.7h2.7v12.2c0,1,0.4,1.6,1.3,1.6s1.3-0.5,1.3-1.6
			C77.7,36.9,77.7,24.7,77.7,24.7z"/>
		<path class="st1" d="M87,40.5l-3.1-9.9v9.9h-2.2V24.7h2.6l2.9,9.1v-9.1h2.2v15.8C89.4,40.5,87,40.5,87,40.5z"/>
		<path class="st1" d="M90.8,40.5V24.7h2.7v15.8H90.8z"/>
		<path class="st1" d="M94.6,26.9v-2.2h7.1v2.2h-2.2v13.6h-2.7V26.9H94.6z"/>
		<path class="st1" d="M102.8,40.5V24.7h2.7v15.8H102.8z"/>
		<path class="st1" d="M107,40.5V24.7h6.3v2.2h-3.7v4.5h2.6v2.1h-2.6v4.8h3.7v2.2H107z"/>
		<path class="st1" d="M118.2,40.7c-1.3,0-2.2-0.3-2.8-1c-0.6-0.6-0.9-1.5-0.9-2.6V35h2.5v2.2c0,0.9,0.4,1.4,1.3,1.4
			c0.8,0,1.2-0.5,1.2-1.4v-0.6c0-0.4-0.1-0.8-0.3-1.1c-0.2-0.3-0.5-0.7-0.9-1.1l-1.6-1.6c-0.8-0.8-1.4-1.5-1.7-2.1
			c-0.3-0.6-0.5-1.3-0.5-2.1V28c0-1,0.3-1.9,0.9-2.5s1.6-1,2.8-1c1.3,0,2.2,0.3,2.8,0.9c0.6,0.6,0.9,1.5,0.9,2.7v1.3h-2.4V28
			c0-0.9-0.4-1.3-1.3-1.3s-1.3,0.4-1.3,1.3v0.3c0,0.4,0.1,0.8,0.3,1c0.2,0.3,0.5,0.7,1,1.1l1.7,1.7c0.8,0.8,1.3,1.5,1.7,2
			c0.3,0.6,0.5,1.2,0.5,2.1V37c0,1.1-0.3,2-1,2.7C120.4,40.3,119.5,40.7,118.2,40.7z"/>
	</g>
</g>
</svg>
