<?xml version="1.0" encoding="utf-8"?>
<!-- Generator: Adobe Illustrator 25.4.1, SVG Export Plug-In . SVG Version: 6.00 Build 0)  -->
<svg version="1.1" id="Layer_1" xmlns="http://www.w3.org/2000/svg" xmlns:xlink="http://www.w3.org/1999/xlink" x="0px" y="0px"
	 viewBox="0 0 137.3 62.7" style="enable-background:new 0 0 137.3 62.7;" xml:space="preserve">
<style type="text/css">
	.st0{enable-background:new    ;}
	.st1{fill:#FFFFFF;}
</style>
<g id="_x31_2" transform="scale(0.94)">
	<g class="st0">
		<path class="st1" d="M5.9,17.1L3.3,9.5v7.7H0.5V0.4h4.1c1.4,0,2.4,0.3,3,1S8.5,3,8.5,4.2v2.1c0,1.8-0.7,2.9-2.2,3.2L9,17.1H5.9z
			 M4.2,2.7H3.3v5.2h0.9c0.9,0,1.4-0.5,1.4-1.4V4.1C5.6,3.2,5.1,2.7,4.2,2.7z"/>
		<path class="st1" d="M10.1,17.1V0.4h6.7v2.3h-3.9v4.8h2.8v2.3h-2.8v5.1h3.9v2.3L10.1,17.1L10.1,17.1z"/>
		<path class="st1" d="M22.1,17.3c-1.4,0-2.4-0.3-3-1c-0.6-0.7-1-1.6-1-2.8v-2.2h2.6v2.3c0,1,0.5,1.5,1.4,1.5s1.3-0.5,1.3-1.5V13
			c0-0.5-0.1-0.9-0.3-1.2c-0.2-0.3-0.5-0.7-1-1.2l-1.7-1.7c-0.9-0.9-1.5-1.6-1.8-2.2s-0.5-1.4-0.5-2.3V3.9c0-1.1,0.3-2,1-2.7
			s1.6-1,3-1s2.4,0.3,3,1C25.7,1.8,26,2.8,26,4v1.4h-2.6V3.9c0-1-0.4-1.4-1.3-1.4S20.8,3,20.8,3.9v0.3c0,0.4,0.1,0.8,0.3,1.1
			s0.5,0.7,1,1.2l1.8,1.8c0.8,0.9,1.4,1.6,1.8,2.2c0.3,0.6,0.5,1.3,0.5,2.2v0.8c0,1.2-0.3,2.2-1,2.9C24.5,17,23.5,17.3,22.1,17.3z"
			/>
		<path class="st1" d="M27.8,17.1V0.4H32c1.4,0,2.4,0.3,3,1C35.6,2,35.9,3,35.9,4.2v3.5c0,1.2-0.3,2.2-0.9,2.8c-0.6,0.6-1.6,1-3,1
			h-1.4v5.7h-2.8V17.1z M31.7,2.7h-1v6.6h1c0.9,0,1.4-0.5,1.4-1.4V4.1C33,3.2,32.6,2.7,31.7,2.7z"/>
		<path class="st1" d="M41.7,17.3c-1.4,0-2.5-0.4-3.2-1.2c-0.7-0.8-1.1-1.9-1.1-3.3V4.7c0-1.4,0.4-2.5,1.1-3.3
			c0.7-0.8,1.8-1.2,3.2-1.2s2.5,0.4,3.2,1.2S46,3.3,46,4.7v8.1c0,1.4-0.4,2.5-1.1,3.3C44.2,16.9,43.1,17.3,41.7,17.3z M41.7,15
			c1,0,1.5-0.6,1.5-1.7v-9c0-1.2-0.5-1.7-1.5-1.7s-1.4,0.6-1.4,1.7v9C40.2,14.4,40.7,15,41.7,15z"/>
		<path class="st1" d="M53.3,17.1L50,6.6v10.5h-2.4V0.4h2.8l3,9.6V0.4h2.3v16.7H53.3z"/>
		<path class="st1" d="M61.4,17.3c-1.4,0-2.4-0.3-3-1c-0.6-0.7-1-1.6-1-2.8v-2.2H60v2.3c0,1,0.5,1.5,1.4,1.5s1.3-0.5,1.3-1.5V13
			c0-0.5-0.1-0.9-0.3-1.2s-0.5-0.7-1-1.2l-1.7-1.7c-0.9-0.9-1.5-1.6-1.8-2.2s-0.5-1.4-0.5-2.3V3.9c0-1.1,0.3-2,1-2.7s1.6-1,3-1
			s2.4,0.3,3,1C65,1.8,65.3,2.8,65.3,4v1.4h-2.6V3.9c0-1-0.4-1.4-1.3-1.4c-0.9,0-1.3,0.5-1.3,1.4v0.3c0,0.4,0.1,0.8,0.3,1.1
			c0.2,0.3,0.5,0.7,1,1.2l1.8,1.8c0.8,0.9,1.4,1.6,1.8,2.2c0.3,0.6,0.5,1.3,0.5,2.2v0.8c0,1.2-0.3,2.2-1,2.9
			C63.8,17,62.7,17.3,61.4,17.3z"/>
		<path class="st1" d="M67.1,17.1V0.4h2.8v16.7H67.1z"/>
		<path class="st1" d="M71.6,17.1V0.4h4.1c1.4,0,2.3,0.3,2.9,0.9s0.9,1.5,0.9,2.8v1.7c0,1.4-0.6,2.3-1.7,2.7
			c1.4,0.3,2.1,1.2,2.1,2.8v2.2c0,1.2-0.3,2.1-0.9,2.7s-1.6,0.9-3,0.9H71.6z M74.4,2.7v4.8h1c0.9,0,1.3-0.5,1.3-1.4v-2
			c0-0.9-0.5-1.4-1.4-1.4C75.3,2.7,74.4,2.7,74.4,2.7z M75.6,9.6h-1.2v5.2h1.2c0.9,0,1.4-0.5,1.4-1.4V11C77,10.1,76.6,9.6,75.6,9.6z
			"/>
		<path class="st1" d="M81.4,17.1V0.4h2.8v14.4h3.4v2.3C87.6,17.1,81.4,17.1,81.4,17.1z"/>
		<path class="st1" d="M89,17.1V0.4h6.7v2.3h-3.9v4.8h2.8v2.3h-2.8v5.1h3.9v2.3L89,17.1L89,17.1z"/>
	</g>
	<g class="st0">
		<path class="st1" d="M4.6,42c-1.4,0-2.5-0.4-3.2-1.2s-1-1.9-1-3.3v-8.1c0-1.4,0.3-2.5,1-3.3s1.7-1.2,3.2-1.2s2.5,0.4,3.1,1.1
			s0.9,1.8,0.9,3.1v2H6.1v-2.2c0-1.1-0.5-1.6-1.4-1.6c-1,0-1.4,0.6-1.4,1.7v9c0,1.2,0.5,1.7,1.4,1.7s1.4-0.5,1.4-1.6V35h2.6v2.9
			C8.6,40.6,7.3,42,4.6,42z"/>
		<path class="st1" d="M14.5,42c-1.4,0-2.5-0.4-3.2-1.2s-1.1-1.9-1.1-3.3v-8.1c0-1.4,0.4-2.5,1.1-3.3c0.7-0.8,1.8-1.2,3.2-1.2
			s2.5,0.4,3.2,1.2c0.7,0.8,1.1,1.9,1.1,3.3v8.1c0,1.4-0.4,2.5-1.1,3.3S15.9,42,14.5,42z M14.5,39.7c1,0,1.5-0.6,1.5-1.7v-9
			c0-1.2-0.5-1.7-1.5-1.7s-1.4,0.6-1.4,1.7v9C13.1,39.1,13.6,39.7,14.5,39.7z"/>
		<path class="st1" d="M26.2,41.8l-3.3-10.5v10.5h-2.4V25.1h2.8l3,9.6v-9.6h2.3v16.7C28.6,41.8,26.2,41.8,26.2,41.8z"/>
		<path class="st1" d="M34.2,42c-1.4,0-2.4-0.3-3-1s-1-1.6-1-2.8V36h2.6v2.3c0,1,0.5,1.5,1.4,1.5s1.3-0.5,1.3-1.5v-0.6
			c0-0.5-0.1-0.9-0.3-1.2s-0.5-0.7-1-1.2l-1.7-1.7c-0.9-0.9-1.5-1.6-1.8-2.2s-0.5-1.4-0.5-2.3v-0.6c0-1.1,0.3-2,1-2.7s1.6-1,3-1
			s2.4,0.3,3,1c0.6,0.6,0.9,1.6,0.9,2.8V30h-2.6v-1.5c0-1-0.4-1.4-1.3-1.4c-0.9,0-1.3,0.5-1.3,1.4v0.3c0,0.4,0.1,0.8,0.3,1.1
			c0.2,0.3,0.5,0.7,1,1.2l1.8,1.8c0.8,0.9,1.4,1.6,1.8,2.2c0.3,0.6,0.5,1.3,0.5,2.2v0.8c0,1.2-0.3,2.2-1,2.9
			C36.6,41.6,35.6,42,34.2,42z"/>
		<path class="st1" d="M45.5,25.1h2.6v12.7c0,2.8-1.3,4.3-4,4.3c-2.8,0-4.2-1.4-4.2-4.3V25.1h2.8V38c0,1.1,0.5,1.7,1.4,1.7
			s1.4-0.6,1.4-1.7V25.1z"/>
		<path class="st1" d="M57.5,41.8V30.9h-0.1l-1.9,10.9h-1.3l-2.1-10.9l0,0v10.9h-2.3V25.1h3.3l1.8,9.4l0,0l1.6-9.4h3.6v16.7
			C60.1,41.8,57.5,41.8,57.5,41.8z"/>
		<path class="st1" d="M61.8,41.8V25.1H66c1.4,0,2.4,0.3,3,1c0.6,0.6,0.9,1.6,0.9,2.8v3.5c0,1.2-0.3,2.2-0.9,2.8s-1.6,1-3,1h-1.4
			v5.7h-2.8V41.8z M65.7,27.4h-1V34h1c0.9,0,1.4-0.5,1.4-1.4v-3.8C67.1,27.8,66.6,27.4,65.7,27.4z"/>
		<path class="st1" d="M71,27.4v-2.3h7.5v2.3h-2.3v14.4h-2.8V27.4H71z"/>
		<path class="st1" d="M79.9,41.8V25.1h2.8v16.7C82.7,41.8,79.9,41.8,79.9,41.8z"/>
		<path class="st1" d="M88.7,42c-1.4,0-2.5-0.4-3.2-1.2s-1.1-1.9-1.1-3.3v-8.1c0-1.4,0.4-2.5,1.1-3.3s1.8-1.2,3.2-1.2
			c1.4,0,2.5,0.4,3.2,1.2c0.7,0.8,1.1,1.9,1.1,3.3v8.1c0,1.4-0.4,2.5-1.1,3.3S90.1,42,88.7,42z M88.7,39.7c1,0,1.5-0.6,1.5-1.7v-9
			c0-1.2-0.5-1.7-1.5-1.7s-1.4,0.6-1.4,1.7v9C87.3,39.1,87.8,39.7,88.7,39.7z"/>
		<path class="st1" d="M100.4,41.8l-3.3-10.5v10.5h-2.4V25.1h2.8l3,9.6v-9.6h2.3v16.7C102.8,41.8,100.4,41.8,100.4,41.8z"/>
	</g>
	<g class="st0">
		<path class="st1" d="M2.7,66.5H0l3.2-16.7h3.2l3.2,16.7H6.7l-0.5-3.1h-3L2.7,66.5z M4.6,54.5l-1.1,6.7h2.2L4.6,54.5L4.6,54.5z"/>
		<path class="st1" d="M16.5,66.5L13.2,56v10.5h-2.4V49.7h2.8l3,9.6v-9.6H19v16.7L16.5,66.5L16.5,66.5z"/>
		<path class="st1" d="M25,49.7c2.7,0,4.1,1.5,4.1,4.5V62c0,3-1.4,4.5-4.1,4.5h-4.3V49.7H25z M23.5,64.2h1.2c1.1,0,1.6-0.6,1.6-1.7
			v-8.8c0-1.1-0.5-1.7-1.6-1.7h-1.2V64.2z"/>
		<path class="st1" d="M34.2,66.5V49.7h4.2c1.4,0,2.4,0.3,3,1c0.6,0.6,0.9,1.6,0.9,2.8V57c0,1.2-0.3,2.2-0.9,2.8c-0.6,0.6-1.6,1-3,1
			H37v5.7H34.2z M38,52h-1v6.6h1c0.9,0,1.4-0.5,1.4-1.4v-3.8C39.4,52.5,38.9,52,38,52z"/>
		<path class="st1" d="M49.2,66.5l-2.6-7.7v7.7h-2.8V49.7h4.1c1.4,0,2.4,0.3,3,1c0.6,0.6,0.9,1.6,0.9,2.8v2.1c0,1.8-0.7,2.9-2.2,3.2
			l2.7,7.6L49.2,66.5L49.2,66.5z M47.5,52h-0.9v5.2h0.9c0.9,0,1.4-0.5,1.4-1.4v-2.5C48.9,52.5,48.5,52,47.5,52z"/>
		<path class="st1" d="M57.6,66.7c-1.4,0-2.5-0.4-3.2-1.2c-0.7-0.8-1.1-1.9-1.1-3.3v-8.1c0-1.4,0.4-2.5,1.1-3.3
			c0.7-0.8,1.8-1.2,3.2-1.2s2.5,0.4,3.2,1.2s1.1,1.9,1.1,3.3v8.1c0,1.4-0.4,2.5-1.1,3.3C60.1,66.3,59.1,66.7,57.6,66.7z M57.6,64.3
			c1,0,1.5-0.6,1.5-1.7v-9c0-1.2-0.5-1.7-1.5-1.7s-1.4,0.6-1.4,1.7v9C56.2,63.7,56.7,64.3,57.6,64.3z"/>
		<path class="st1" d="M68,49.7c2.7,0,4.1,1.5,4.1,4.5V62c0,3-1.4,4.5-4.1,4.5h-4.3V49.7H68z M66.5,64.2h1.2c1.1,0,1.6-0.6,1.6-1.7
			v-8.8c0-1.1-0.5-1.7-1.6-1.7h-1.2V64.2z"/>
		<path class="st1" d="M79.4,49.7H82v12.7c0,2.8-1.3,4.3-4,4.3c-2.8,0-4.2-1.4-4.2-4.3V49.7h2.8v12.9c0,1.1,0.5,1.7,1.4,1.7
			s1.4-0.6,1.4-1.7C79.4,62.6,79.4,49.7,79.4,49.7z"/>
		<path class="st1" d="M87.9,66.7c-1.4,0-2.5-0.4-3.2-1.2c-0.7-0.8-1-1.9-1-3.3v-8.1c0-1.4,0.3-2.5,1-3.3s1.7-1.2,3.2-1.2
			s2.5,0.4,3.1,1.1c0.6,0.7,0.9,1.8,0.9,3.1v2h-2.6v-2.2c0-1.1-0.5-1.6-1.4-1.6c-1,0-1.4,0.6-1.4,1.7v9c0,1.2,0.5,1.7,1.4,1.7
			s1.4-0.5,1.4-1.6v-3.1h2.6v2.9C91.8,65.3,90.5,66.7,87.9,66.7z"/>
		<path class="st1" d="M92.9,52v-2.3h7.5V52h-2.3v14.4h-2.8V52H92.9z"/>
		<path class="st1" d="M101.8,66.5V49.7h2.8v16.7L101.8,66.5L101.8,66.5z"/>
		<path class="st1" d="M110.6,66.7c-1.4,0-2.5-0.4-3.2-1.2c-0.7-0.8-1.1-1.9-1.1-3.3v-8.1c0-1.4,0.4-2.5,1.1-3.3s1.8-1.2,3.2-1.2
			c1.4,0,2.5,0.4,3.2,1.2s1.1,1.9,1.1,3.3v8.1c0,1.4-0.4,2.5-1.1,3.3S112.1,66.7,110.6,66.7z M110.6,64.3c1,0,1.5-0.6,1.5-1.7v-9
			c0-1.2-0.5-1.7-1.5-1.7s-1.4,0.6-1.4,1.7v9C109.2,63.7,109.7,64.3,110.6,64.3z"/>
		<path class="st1" d="M122.3,66.5L119,56v10.5h-2.4V49.7h2.8l3,9.6v-9.6h2.3v16.7L122.3,66.5L122.3,66.5z"/>
	</g>
</g>
</svg>
