<?xml version="1.0" encoding="utf-8"?>
<!-- Generator: Adobe Illustrator 25.4.1, SVG Export Plug-In . SVG Version: 6.00 Build 0)  -->
<svg version="1.1" id="Layer_1" xmlns="http://www.w3.org/2000/svg" xmlns:xlink="http://www.w3.org/1999/xlink" x="0px" y="0px"
	 viewBox="0 0 137.3 62.7" style="enable-background:new 0 0 137.3 62.7;" xml:space="preserve">
<style type="text/css">
	.st0{enable-background:new    ;}
	.st1{fill:#FFFFFF;}
</style>
<g id="_x31_3" transform="scale(0.94)">
	<g class="st0">
		<path class="st1" d="M4.6,17.2c-1.4,0-2.4-0.4-3.1-1.2c-0.7-0.8-1-1.9-1-3.3v-8c0-1.4,0.3-2.5,1-3.3s1.7-1.2,3.1-1.2
			c1.5,0,2.5,0.4,3.1,1.1S8.6,3,8.6,4.4v2H6V4.1C6,3,5.6,2.5,4.7,2.5S3.3,3.1,3.3,4.2v8.9c0,1.1,0.5,1.7,1.4,1.7S6,14.3,6,13.2v-3.1
			h2.5V13C8.6,15.8,7.2,17.2,4.6,17.2z"/>
		<path class="st1" d="M10.2,17V0.4H13v14.3h3.3V17H10.2z"/>
		<path class="st1" d="M17.7,17V0.4h2.8V17H17.7z"/>
		<path class="st1" d="M29.9,17V6.2h-0.1L28,17h-1.3L24.6,6.2l0,0V17h-2.3V0.4h3.3l1.8,9.4l0,0L29,0.4h3.5V17H29.9z"/>
		<path class="st1" d="M36.4,17h-2.6l3.1-16.6h3.2L43.3,17h-2.9l-0.5-3h-3L36.4,17z M38.4,5.1l-1.1,6.7h2.2L38.4,5.1L38.4,5.1z"/>
		<path class="st1" d="M43,2.7V0.4h7.4v2.3h-2.3V17h-2.8V2.7H43z"/>
		<path class="st1" d="M51.8,17V0.4h6.7v2.3h-3.9v4.8h2.8v2.3h-2.8v5h3.9V17H51.8z"/>
	</g>
	<g class="st0">
		<path class="st1" d="M2.7,41.5H0l3.1-16.6h3.2l3.2,16.6H6.6l-0.5-3h-3L2.7,41.5z M4.6,29.6l-1.1,6.7h2.2L4.6,29.6L4.6,29.6z"/>
		<path class="st1" d="M14.6,41.7c-1.4,0-2.4-0.4-3.1-1.2c-0.7-0.8-1-1.9-1-3.3v-8c0-1.4,0.3-2.5,1-3.3s1.7-1.2,3.1-1.2
			c1.5,0,2.5,0.4,3.1,1.1s0.9,1.7,0.9,3.1v2H16v-2.2c0-1.1-0.4-1.6-1.3-1.6c-0.9,0-1.4,0.6-1.4,1.7v8.9c0,1.1,0.5,1.7,1.4,1.7
			s1.3-0.5,1.3-1.6v-3.1h2.5v2.9C18.5,40.3,17.2,41.7,14.6,41.7z"/>
		<path class="st1" d="M19.6,27.2v-2.3H27v2.3h-2.3v14.3h-2.8V27.2H19.6z"/>
		<path class="st1" d="M28.4,41.5V24.9h2.8v16.6H28.4z"/>
		<path class="st1" d="M37.2,41.7c-1.4,0-2.5-0.4-3.2-1.2s-1.1-1.9-1.1-3.3v-8c0-1.4,0.4-2.5,1.1-3.3c0.7-0.8,1.8-1.2,3.2-1.2
			s2.5,0.4,3.2,1.2c0.7,0.8,1.1,1.9,1.1,3.3v8c0,1.4-0.4,2.4-1.1,3.3C39.7,41.3,38.6,41.7,37.2,41.7z M37.2,39.4
			c1,0,1.4-0.6,1.4-1.7v-8.9c0-1.1-0.5-1.7-1.4-1.7s-1.4,0.6-1.4,1.7v8.9C35.8,38.8,36.2,39.4,37.2,39.4z"/>
		<path class="st1" d="M48.8,41.5l-3.3-10.4v10.4h-2.4V24.9h2.7l3,9.5v-9.5h2.3v16.6H48.8z"/>
	</g>
</g>
</svg>
