<?xml version="1.0" encoding="utf-8"?>
<!-- Generator: Adobe Illustrator 25.4.1, SVG Export Plug-In . SVG Version: 6.00 Build 0)  -->
<svg version="1.1" id="Layer_1" xmlns="http://www.w3.org/2000/svg" xmlns:xlink="http://www.w3.org/1999/xlink" x="0px" y="0px"
	 viewBox="0 0 137.3 62.7" style="enable-background:new 0 0 137.3 62.7;" xml:space="preserve">
<style type="text/css">
	.st0{enable-background:new    ;}
	.st1{fill:#FFFFFF;}
</style>
<g id="_x31_4" transform="scale(0.94)">
	<g class="st0">
		<path class="st1" d="M0.4,17V0.4h2.8v14.3h3.3V17H0.4z"/>
		<path class="st1" d="M8,17V0.4h2.8V17H8z"/>
		<path class="st1" d="M12.5,17V0.4H19v2.3h-3.7v4.8h2.8v2.3h-2.8V17H12.5z"/>
		<path class="st1" d="M20.4,17V0.4h6.7v2.3h-3.9v4.8H26v2.3h-2.8v5h3.9V17H20.4z"/>
		<path class="st1" d="M32,17V0.4h4c1.4,0,2.3,0.3,2.9,0.9c0.6,0.6,0.8,1.5,0.8,2.7v1.7c0,1.4-0.6,2.3-1.7,2.6
			c1.4,0.3,2.1,1.2,2.1,2.8v2.2c0,1.2-0.3,2.1-0.9,2.7c-0.6,0.6-1.6,0.9-2.9,0.9H32V17z M34.8,2.7v4.7h1c0.9,0,1.3-0.4,1.3-1.3V4
			c0-0.9-0.4-1.3-1.3-1.3H34.8z M36,9.5h-1.2v5.2H36c0.9,0,1.4-0.4,1.4-1.3v-2.5C37.4,10,36.9,9.5,36,9.5z"/>
		<path class="st1" d="M41.7,17V0.4h6.7v2.3h-3.9v4.8h2.8v2.3h-2.8v5h3.9V17H41.7z"/>
		<path class="st1" d="M50,17V0.4h2.8v14.3h3.3V17H50z"/>
		<path class="st1" d="M61.6,17.2c-1.4,0-2.5-0.4-3.2-1.2c-0.7-0.8-1.1-1.9-1.1-3.3v-8c0-1.4,0.4-2.5,1.1-3.3
			c0.7-0.8,1.8-1.2,3.2-1.2s2.5,0.4,3.2,1.2s1.1,1.9,1.1,3.3v8c0,1.4-0.4,2.4-1.1,3.3C64.1,16.8,63,17.2,61.6,17.2z M61.6,14.9
			c1,0,1.4-0.6,1.4-1.7v-9c0-1.1-0.5-1.7-1.4-1.7s-1.4,0.6-1.4,1.7v8.9C60.1,14.3,60.6,14.9,61.6,14.9z"/>
		<path class="st1" d="M73.3,6.7L73.3,6.7L71.7,17h-2.6L66.9,0.4h2.7l1.3,10.5l0,0l1.4-10.5h2.3l1.5,10.5l0,0l1.3-10.5h2.4L77.6,17
			H75L73.3,6.7z"/>
	</g>
	<g class="st0">
		<path class="st1" d="M6.5,31.2L6.5,31.2L4.9,41.5H2.3L0.1,24.9h2.7l1.3,10.5l0,0l1.4-10.5h2.3l1.5,10.5l0,0l1.3-10.5H13l-2.2,16.6
			H8.1L6.5,31.2z"/>
		<path class="st1" d="M15.5,41.5h-2.6L16,24.9h3.2l3.2,16.6h-2.9l-0.5-3h-3L15.5,41.5z M17.5,29.6l-1.1,6.7h2.2L17.5,29.6
			L17.5,29.6z"/>
		<path class="st1" d="M22.1,27.2v-2.3h7.4v2.3h-2.3v14.3h-2.8V27.2H22.1z"/>
		<path class="st1" d="M30.9,41.5V24.9h6.7v2.3h-3.9V32h2.8v2.3h-2.8v5h3.9v2.3L30.9,41.5L30.9,41.5z"/>
		<path class="st1" d="M44.6,41.5L42,33.9v7.6h-2.8V24.9h4.1c1.4,0,2.3,0.3,2.9,1c0.6,0.6,0.9,1.6,0.9,2.8v2.1
			c0,1.8-0.7,2.9-2.2,3.2l2.7,7.5H44.6z M42.9,27.2H42v5.2h0.9c0.9,0,1.4-0.5,1.4-1.4v-2.4C44.3,27.6,43.8,27.2,42.9,27.2z"/>
	</g>
</g>
</svg>
