<?xml version="1.0" encoding="utf-8"?>
<!-- Generator: Adobe Illustrator 25.4.1, SVG Export Plug-In . SVG Version: 6.00 Build 0)  -->
<svg version="1.1" id="Layer_1" xmlns="http://www.w3.org/2000/svg" xmlns:xlink="http://www.w3.org/1999/xlink" x="0px" y="0px"
	 viewBox="0 0 137.3 62.7" style="enable-background:new 0 0 137.3 62.7;" xml:space="preserve">
<style type="text/css">
	.st0{enable-background:new    ;}
	.st1{fill:#FFFFFF;}
</style>
<g id="_x31_5" transform="scale(0.94)">
	<g class="st0">
		<path class="st1" d="M0.4,17V0.4h2.8v14.3h3.3V17H0.4z"/>
		<path class="st1" d="M8,17V0.4h2.8V17H8z"/>
		<path class="st1" d="M12.5,17V0.4H19v2.3h-3.7v4.8h2.8v2.3h-2.8V17H12.5z"/>
		<path class="st1" d="M20.4,17V0.4h6.7v2.3h-3.9v4.8H26v2.3h-2.8v5h3.9V17H20.4z"/>
	</g>
	<g class="st0">
		<path class="st1" d="M4.7,41.7c-1.4,0-2.5-0.4-3.2-1.2s-1.1-1.9-1.1-3.3v-8c0-1.4,0.4-2.5,1.1-3.3s1.8-1.2,3.2-1.2
			s2.5,0.4,3.2,1.2C8.6,26.7,9,27.8,9,29.2v8c0,1.4-0.4,2.4-1.1,3.3C7.1,41.3,6.1,41.7,4.7,41.7z M4.7,39.4c1,0,1.4-0.6,1.4-1.7
			v-8.9c0-1.1-0.5-1.7-1.4-1.7s-1.4,0.6-1.4,1.7v8.9C3.2,38.8,3.7,39.4,4.7,39.4z"/>
		<path class="st1" d="M16.3,41.5L13,31.1v10.4h-2.4V24.9h2.7l3,9.5v-9.5h2.3v16.6H16.3z"/>
		<path class="st1" d="M23.7,41.5V24.9h2.8v14.3h3.3v2.3H23.7z"/>
		<path class="st1" d="M33.4,41.5h-2.6l3.1-16.6h3.2l3.2,16.6h-2.9l-0.5-3h-3L33.4,41.5z M35.4,29.6l-1.1,6.7h2.2L35.4,29.6
			L35.4,29.6z"/>
		<path class="st1" d="M47.2,41.5l-3.3-10.4v10.4h-2.4V24.9h2.7l3,9.5v-9.5h2.3v16.6H47.2z"/>
		<path class="st1" d="M55.7,24.9c2.7,0,4,1.5,4,4.5V37c0,3-1.3,4.5-4,4.5h-4.3V24.9H55.7z M54.1,39.2h1.2c1.1,0,1.6-0.6,1.6-1.7
			v-8.7c0-1.1-0.5-1.7-1.6-1.7h-1.2V39.2z"/>
	</g>
</g>
</svg>
