<?xml version="1.0" encoding="utf-8"?>
<!-- Generator: Adobe Illustrator 25.4.1, SVG Export Plug-In . SVG Version: 6.00 Build 0)  -->
<svg version="1.1" id="Layer_1" xmlns="http://www.w3.org/2000/svg" xmlns:xlink="http://www.w3.org/1999/xlink" x="0px" y="0px"
	 viewBox="0 0 137.3 62.7" style="enable-background:new 0 0 137.3 62.7;" xml:space="preserve">
<style type="text/css">
	.st0{enable-background:new    ;}
	.st1{fill:#FFFFFF;}
</style>
<g id="_x31_6" transform="scale(0.94)">
	<g class="st0">
		<path class="st1" d="M0.5,17.1V0.4h4.2c1.4,0,2.3,0.3,3,1C8.2,2,8.5,2.9,8.5,4.1v3.5c0,1.2-0.3,2.2-0.9,2.8c-0.6,0.6-1.6,1-3,1
			H3.3v5.7C3.3,17.1,0.5,17.1,0.5,17.1z M4.3,2.7h-1v6.6h1c0.9,0,1.4-0.5,1.4-1.4V4C5.7,3.1,5.2,2.7,4.3,2.7z"/>
		<path class="st1" d="M10,17.1V0.4h6.7v2.3h-3.9v4.8h2.8v2.3h-2.8v5.1h3.9v2.3L10,17.1L10,17.1z"/>
		<path class="st1" d="M20.6,17.1h-2.7L21,0.4h3.2l3.2,16.7h-2.9L24,14h-3L20.6,17.1z M22.5,5.1l-1.1,6.7h2.2L22.5,5.1L22.5,5.1z"/>
		<path class="st1" d="M32.5,17.3c-1.4,0-2.5-0.4-3.1-1.2c-0.7-0.8-1-1.9-1-3.3V4.7c0-1.4,0.3-2.5,1-3.3s1.7-1.2,3.1-1.2
			c1.5,0,2.5,0.4,3.1,1.1C36.2,2,36.5,3,36.5,4.4v2h-2.6V4.2c0-1.1-0.5-1.6-1.4-1.6c-1,0-1.4,0.6-1.4,1.7v9c0,1.1,0.5,1.7,1.4,1.7
			c0.9,0,1.4-0.5,1.4-1.6v-3.1h2.6v2.9C36.5,15.9,35.2,17.3,32.5,17.3z"/>
		<path class="st1" d="M38.1,17.1V0.4h6.7v2.3h-3.9v4.8h2.8v2.3h-2.8v5.1h3.9v2.3L38.1,17.1L38.1,17.1z"/>
		<path class="st1" d="M49.3,14.4v0.2l-1.4,3.8h-1.6l0.3-4H49.3z"/>
		<path class="st1" d="M59,0.4h2.8v12.9c0,2.7-1.3,4-3.9,4c-1.4,0-2.3-0.3-2.9-1c-0.5-0.7-0.8-1.6-0.8-2.7v-3.3h2.7v3.4
			c0,0.9,0.3,1.3,1,1.3s1.1-0.5,1.1-1.4C59,13.6,59,0.4,59,0.4z"/>
		<path class="st1" d="M69.1,0.4h2.6V13c0,2.8-1.3,4.3-4,4.3c-2.8,0-4.2-1.4-4.2-4.3V0.4h2.8v12.9c0,1.1,0.5,1.6,1.4,1.6
			s1.4-0.5,1.4-1.6V0.4z"/>
		<path class="st1" d="M77.2,17.3c-1.4,0-2.4-0.3-3-1c-0.6-0.7-1-1.6-1-2.8v-2.2h2.6v2.3c0,1,0.5,1.5,1.4,1.5s1.3-0.5,1.3-1.5V13
			c0-0.5-0.1-0.9-0.3-1.2c-0.2-0.3-0.5-0.7-1-1.2L75.6,9c-0.9-0.9-1.5-1.6-1.8-2.2s-0.5-1.4-0.5-2.3V3.9c0-1.1,0.3-2,1-2.7
			s1.6-1,3-1s2.4,0.3,3,1c0.6,0.6,0.9,1.6,0.9,2.8v1.4h-2.6V3.9c0-1-0.4-1.4-1.3-1.4S76,3,76,3.9v0.3c0,0.4,0.1,0.8,0.3,1.1
			c0.2,0.3,0.5,0.7,1,1.2L79,8.2c0.8,0.9,1.4,1.6,1.8,2.2c0.3,0.6,0.5,1.3,0.5,2.2v0.8c0,1.2-0.3,2.1-1,2.9
			C79.6,16.9,78.6,17.3,77.2,17.3z"/>
		<path class="st1" d="M82.2,2.7V0.4h7.5v2.3h-2.3v14.4h-2.8V2.7H82.2z"/>
		<path class="st1" d="M91.1,17.1V0.4h2.8v16.7H91.1z"/>
		<path class="st1" d="M99.8,17.3c-1.4,0-2.5-0.4-3.1-1.2c-0.7-0.8-1-1.9-1-3.3V4.7c0-1.4,0.3-2.5,1-3.3s1.7-1.2,3.1-1.2
			c1.5,0,2.5,0.4,3.1,1.1s0.9,1.8,0.9,3.1v2h-2.6V4.2c0-1.1-0.5-1.6-1.4-1.6c-1,0-1.4,0.6-1.4,1.7v9c0,1.1,0.5,1.7,1.4,1.7
			s1.4-0.5,1.4-1.6v-3.1h2.6v2.9C103.8,15.9,102.4,17.3,99.8,17.3z"/>
		<path class="st1" d="M105.4,17.1V0.4h6.7v2.3h-3.9v4.8h2.8v2.3h-2.8v5.1h3.9v2.3L105.4,17.1L105.4,17.1z"/>
	</g>
	<g class="st0">
		<path class="st1" d="M2.7,41.7H0L3.2,25h3.2l3.2,16.7H6.7l-0.5-3.1h-3L2.7,41.7z M4.6,29.7l-1.1,6.7h2.2L4.6,29.7L4.6,29.7z"/>
		<path class="st1" d="M16.5,41.7l-3.3-10.5v10.5h-2.4V25h2.8l3,9.6V25h2.3v16.7H16.5z"/>
		<path class="st1" d="M25,25c2.7,0,4.1,1.5,4.1,4.5v7.7c0,3-1.4,4.5-4.1,4.5h-4.3V25H25z M23.5,39.4h1.2c1.1,0,1.6-0.6,1.6-1.7V29
			c0-1.1-0.5-1.7-1.6-1.7h-1.2V39.4z"/>
		<path class="st1" d="M37.9,41.9c-1.4,0-2.4-0.3-3-1s-1-1.6-1-2.8v-2.2h2.6v2.3c0,1,0.5,1.5,1.4,1.5s1.3-0.5,1.3-1.5v-0.6
			c0-0.5-0.1-0.9-0.3-1.2s-0.5-0.7-1-1.2l-1.6-1.6c-0.9-0.9-1.5-1.6-1.8-2.2C34.2,30.8,34,30,34,29.1v-0.6c0-1.1,0.3-2,1-2.7
			s1.6-1,3-1s2.4,0.3,3,1c0.6,0.6,0.9,1.6,0.9,2.8V30h-2.6v-1.5c0-1-0.4-1.4-1.3-1.4c-0.9,0-1.3,0.5-1.3,1.4v0.3
			c0,0.4,0.1,0.8,0.3,1.1s0.5,0.7,1,1.2l1.8,1.8c0.8,0.9,1.4,1.6,1.8,2.2c0.3,0.6,0.5,1.3,0.5,2.2V38c0,1.2-0.3,2.1-1,2.9
			C40.3,41.5,39.3,41.9,37.9,41.9z"/>
		<path class="st1" d="M42.9,27.3V25h7.5v2.3H48v14.4h-2.8V27.3H42.9z"/>
		<path class="st1" d="M57.2,41.7L54.6,34v7.7h-2.8V25h4.1c1.4,0,2.3,0.3,3,1c0.6,0.6,0.9,1.6,0.9,2.8v2.1c0,1.8-0.7,2.9-2.2,3.2
			l2.7,7.6C60.3,41.7,57.2,41.7,57.2,41.7z M55.5,27.3h-0.9v5.2h0.9c0.9,0,1.4-0.5,1.4-1.4v-2.5C56.9,27.7,56.4,27.3,55.5,27.3z"/>
		<path class="st1" d="M65.6,41.9c-1.4,0-2.5-0.4-3.2-1.2s-1.1-1.9-1.1-3.3v-8.1c0-1.4,0.4-2.5,1.1-3.3c0.7-0.8,1.8-1.2,3.2-1.2
			s2.5,0.4,3.2,1.2c0.7,0.8,1.1,1.9,1.1,3.3v8.1c0,1.4-0.4,2.5-1.1,3.3S67,41.9,65.6,41.9z M65.6,39.5c1,0,1.5-0.6,1.5-1.7v-9
			c0-1.1-0.5-1.7-1.5-1.7s-1.4,0.6-1.4,1.7v9C64.2,39,64.6,39.5,65.6,39.5z"/>
		<path class="st1" d="M77.2,41.7l-3.3-10.5v10.5h-2.4V25h2.8l3,9.6V25h2.3v16.7H77.2z"/>
		<path class="st1" d="M85.6,35v-2.2h4v8.9h-2v-1.8c-0.4,1.3-1.3,2-2.7,2c-1.2,0-2-0.4-2.6-1.2s-0.9-1.9-0.9-3.3v-8.1
			c0-1.4,0.3-2.5,1-3.3s1.8-1.2,3.2-1.2c1.5,0,2.5,0.4,3.1,1.1s0.9,1.8,0.9,3.1v1.5H87v-1.7c0-1.1-0.5-1.6-1.4-1.6
			c-1,0-1.5,0.6-1.5,1.7v9c0,1.1,0.5,1.7,1.4,1.7s1.4-0.5,1.4-1.6v-3H85.6z"/>
	</g>
	<g class="st0">
		<path class="st1" d="M0.5,66.3V49.6h2.8v16.7H0.5z"/>
		<path class="st1" d="M10.7,66.3L7.4,55.8v10.5H5V49.6h2.8l3,9.6v-9.6h2.3v16.7H10.7z"/>
		<path class="st1" d="M18.7,66.5c-1.4,0-2.4-0.3-3-1s-1-1.6-1-2.8v-2.2h2.6v2.3c0,1,0.5,1.5,1.4,1.5s1.3-0.5,1.3-1.5v-0.6
			c0-0.5-0.1-0.9-0.3-1.2c-0.2-0.3-0.5-0.7-1-1.2l-1.6-1.6c-0.9-0.9-1.5-1.6-1.8-2.2c-0.3-0.6-0.5-1.4-0.5-2.3v-0.6
			c0-1.1,0.3-2,1-2.7s1.6-1,3-1s2.4,0.3,3,1c0.6,0.6,0.9,1.6,0.9,2.8v1.4H20v-1.5c0-1-0.4-1.4-1.3-1.4s-1.3,0.5-1.3,1.4v0.3
			c0,0.4,0.1,0.8,0.3,1.1c0.2,0.3,0.5,0.7,1,1.2l1.8,1.8c0.8,0.9,1.4,1.6,1.8,2.2c0.3,0.6,0.5,1.3,0.5,2.2v0.8c0,1.2-0.3,2.1-1,2.9
			C21.1,66.1,20,66.5,18.7,66.5z"/>
		<path class="st1" d="M23.6,51.9v-2.3h7.5v2.3h-2.3v14.4H26V51.9H23.6z"/>
		<path class="st1" d="M32.5,66.3V49.6h2.8v16.7H32.5z"/>
		<path class="st1" d="M36.8,51.9v-2.3h7.5v2.3H42v14.4h-2.8V51.9H36.8z"/>
		<path class="st1" d="M51.2,49.6h2.6v12.6c0,2.8-1.3,4.3-4,4.3c-2.8,0-4.2-1.4-4.2-4.3V49.6h2.8v12.9c0,1.1,0.5,1.6,1.4,1.6
			s1.4-0.5,1.4-1.6V49.6z"/>
		<path class="st1" d="M55.2,51.9v-2.3h7.5v2.3h-2.3v14.4h-2.8V51.9H55.2z"/>
		<path class="st1" d="M64.1,66.3V49.6h2.8v16.7H64.1z"/>
		<path class="st1" d="M72.8,66.5c-1.4,0-2.5-0.4-3.2-1.2c-0.7-0.8-1.1-1.9-1.1-3.3v-8.1c0-1.4,0.4-2.5,1.1-3.3s1.8-1.2,3.2-1.2
			c1.4,0,2.5,0.4,3.2,1.2s1.1,1.9,1.1,3.3V62c0,1.4-0.4,2.5-1.1,3.3C75.3,66.1,74.3,66.5,72.8,66.5z M72.8,64.1c1,0,1.5-0.6,1.5-1.7
			v-9c0-1.1-0.5-1.7-1.5-1.7s-1.4,0.6-1.4,1.7v9C71.4,63.6,71.9,64.1,72.8,64.1z"/>
		<path class="st1" d="M84.5,66.3l-3.3-10.5v10.5h-2.4V49.6h2.8l3,9.6v-9.6h2.3v16.7H84.5z"/>
		<path class="st1" d="M92.5,66.5c-1.4,0-2.4-0.3-3-1s-1-1.6-1-2.8v-2.2h2.6v2.3c0,1,0.5,1.5,1.4,1.5s1.3-0.5,1.3-1.5v-0.6
			c0-0.5-0.1-0.9-0.3-1.2c-0.2-0.3-0.5-0.7-1-1.2l-1.6-1.6c-0.9-0.9-1.5-1.6-1.8-2.2c-0.3-0.6-0.5-1.4-0.5-2.3v-0.6
			c0-1.1,0.3-2,1-2.7s1.6-1,3-1s2.4,0.3,3,1c0.6,0.6,0.9,1.6,0.9,2.8v1.4h-2.6v-1.5c0-1-0.4-1.4-1.3-1.4s-1.3,0.5-1.3,1.4v0.3
			c0,0.4,0.1,0.8,0.3,1.1c0.2,0.3,0.5,0.7,1,1.2l1.8,1.8c0.8,0.9,1.4,1.6,1.8,2.2c0.3,0.6,0.5,1.3,0.5,2.2v0.8c0,1.2-0.3,2.1-1,2.9
			C94.9,66.1,93.9,66.5,92.5,66.5z"/>
	</g>
</g>
</svg>
