<?xml version="1.0" encoding="utf-8"?>
<!-- Generator: Adobe Illustrator 25.4.1, SVG Export Plug-In . SVG Version: 6.00 Build 0)  -->
<svg version="1.1" id="Layer_1" xmlns="http://www.w3.org/2000/svg" xmlns:xlink="http://www.w3.org/1999/xlink" x="0px" y="0px"
	 viewBox="0 0 137.3 62.7" style="enable-background:new 0 0 137.3 62.7;" xml:space="preserve">
<style type="text/css">
	.st0{enable-background:new    ;}
	.st1{fill:#FFFFFF;}
</style>
<g id="_x31_7" transform="scale(0.94)">
	<g class="st0">
		<path class="st1" d="M0.4,17V0.4h4.1c1.4,0,2.3,0.3,2.9,1c0.7,0.6,1,1.5,1,2.7v3.5c0,1.2-0.3,2.2-0.9,2.8s-1.6,1-2.9,1H3.2V17H0.4
			z M4.3,2.7h-1v6.5h1c0.9,0,1.4-0.5,1.4-1.4V4C5.6,3.1,5.2,2.7,4.3,2.7z"/>
		<path class="st1" d="M11.2,17H8.6l3.1-16.6h3.2L18.1,17h-2.9l-0.5-3h-3L11.2,17z M13.2,5.1l-1.1,6.7h2.2L13.2,5.1L13.2,5.1z"/>
		<path class="st1" d="M24.8,17l-2.6-7.6V17h-2.8V0.4h4.1c1.4,0,2.3,0.3,2.9,1C27,2,27.3,2.9,27.3,4.1v2.1c0,1.8-0.7,2.9-2.2,3.2
			l2.7,7.5h-3V17z M23.1,2.7h-0.9v5.2h0.9c0.9,0,1.4-0.5,1.4-1.4V4C24.4,3.1,24,2.7,23.1,2.7z"/>
		<path class="st1" d="M28.3,2.7V0.4h7.4v2.3h-2.3V17h-2.8V2.7H28.3z"/>
		<path class="st1" d="M42.8,17L39.5,6.6V17h-2.4V0.4h2.7l3,9.5V0.4h2.3V17H42.8z"/>
		<path class="st1" d="M47,17V0.4h6.7v2.3h-3.9v4.8h2.8v2.3h-2.8v5h3.9V17H47z"/>
		<path class="st1" d="M60.7,17L58,9.4V17h-2.8V0.4h4.1c1.4,0,2.3,0.3,2.9,1C62.8,2,63.1,3,63.1,4.2v2.1c0,1.8-0.7,2.9-2.2,3.2
			l2.7,7.5H60.7z M59,2.7h-1v5.2h1c0.9,0,1.4-0.5,1.4-1.4V4C60.4,3.1,59.9,2.7,59,2.7z"/>
		<path class="st1" d="M68.5,17.2c-1.4,0-2.4-0.3-3-1c-0.6-0.7-1-1.6-1-2.8v-2.2h2.6v2.3c0,1,0.5,1.5,1.4,1.5c0.8,0,1.3-0.5,1.3-1.5
			v-0.6c0-0.5-0.1-0.9-0.3-1.2c-0.2-0.3-0.5-0.7-1-1.2l-1.6-1.6C66,8,65.4,7.3,65.1,6.7s-0.5-1.4-0.5-2.3V3.8c0-1.1,0.3-2,1-2.6
			s1.6-1,2.9-1c1.4,0,2.3,0.3,3,1c0.6,0.6,0.9,1.6,0.9,2.8v1.3h-2.5V3.9c0-0.9-0.4-1.4-1.3-1.4S67.3,3,67.3,3.9v0.3
			c0,0.4,0.1,0.8,0.3,1.1c0.2,0.3,0.5,0.7,1,1.2l1.8,1.8c0.8,0.8,1.4,1.6,1.8,2.1c0.3,0.6,0.5,1.3,0.5,2.2v0.8c0,1.2-0.3,2.1-1,2.8
			C70.9,16.8,69.9,17.2,68.5,17.2z"/>
		<path class="st1" d="M79.6,17V9.7h-2.7V17h-2.8V0.4h2.8v7h2.7v-7h2.8V17H79.6z"/>
		<path class="st1" d="M84.2,17V0.4H87V17H84.2z"/>
		<path class="st1" d="M88.7,17V0.4h4.1c1.4,0,2.3,0.3,2.9,1C96.3,2,96.6,3,96.6,4.2v3.5c0,1.2-0.3,2.2-0.9,2.8s-1.6,1-2.9,1h-1.3
			V17H88.7z M92.5,2.7h-1v6.5h1c0.9,0,1.4-0.5,1.4-1.4V4C93.9,3.1,93.4,2.7,92.5,2.7z"/>
		<path class="st1" d="M102,17.2c-1.4,0-2.4-0.3-3-1c-0.6-0.7-1-1.6-1-2.8v-2.2h2.6v2.3c0,1,0.5,1.5,1.4,1.5c0.8,0,1.3-0.5,1.3-1.5
			v-0.6c0-0.5-0.1-0.9-0.3-1.2c-0.2-0.3-0.5-0.7-1-1.2l-1.6-1.6C99.6,8,99,7.3,98.6,6.7s-0.5-1.4-0.5-2.3V3.8c0-1.1,0.3-2,1-2.6
			s1.6-1,2.9-1c1.4,0,2.3,0.3,3,1c0.6,0.6,0.9,1.6,0.9,2.8v1.3h-2.5V3.9c0-0.9-0.4-1.4-1.3-1.4s-1.3,0.5-1.3,1.4v0.3
			c0,0.4,0.1,0.8,0.3,1.1c0.2,0.3,0.5,0.7,1,1.2l1.8,1.8c0.8,0.8,1.4,1.6,1.8,2.1c0.3,0.6,0.5,1.3,0.5,2.2v0.8c0,1.2-0.3,2.1-1,2.8
			C104.4,16.8,103.4,17.2,102,17.2z"/>
	</g>
	<g class="st0">
		<path class="st1" d="M0.4,41.5V24.9H7v2.3H3.2V32H6v2.3H3.2v7.3L0.4,41.5L0.4,41.5z"/>
		<path class="st1" d="M12.3,41.7c-1.4,0-2.5-0.4-3.2-1.2S8,38.6,8,37.2v-8c0-1.4,0.4-2.5,1.1-3.3c0.7-0.8,1.8-1.2,3.2-1.2
			s2.5,0.4,3.2,1.2c0.7,0.8,1.1,1.9,1.1,3.3v8c0,1.4-0.4,2.4-1.1,3.3C14.8,41.3,13.7,41.7,12.3,41.7z M12.3,39.4
			c1,0,1.4-0.6,1.4-1.7v-8.9c0-1.1-0.5-1.7-1.4-1.7s-1.4,0.6-1.4,1.7v8.9C10.9,38.8,11.4,39.4,12.3,39.4z"/>
		<path class="st1" d="M23.7,41.5l-2.6-7.6v7.6h-2.8V24.9h4.1c1.4,0,2.3,0.3,2.9,1c0.6,0.6,0.9,1.6,0.9,2.8v2.1
			c0,1.8-0.7,2.9-2.2,3.2l2.7,7.5H23.7z M22,27.2h-0.9v5.2H22c0.9,0,1.4-0.5,1.4-1.4v-2.4C23.4,27.6,22.9,27.2,22,27.2z"/>
		<path class="st1" d="M30.8,27.2v-2.3h7.4v2.3h-2.3v14.3h-2.8V27.2H30.8z"/>
		<path class="st1" d="M45.1,41.5v-7.3h-2.7v7.3h-2.8V24.9h2.8v7h2.7v-7h2.8v16.6H45.1z"/>
		<path class="st1" d="M49.7,41.5V24.9h6.7v2.3h-3.9V32h2.8v2.3h-2.8v5h3.9v2.3L49.7,41.5L49.7,41.5z"/>
		<path class="st1" d="M65.5,34.8v-2.2h4v8.9h-2v-1.8c-0.4,1.3-1.3,2-2.7,2c-1.2,0-2-0.4-2.6-1.2s-0.9-1.9-0.9-3.3v-8
			c0-1.4,0.3-2.5,1-3.3s1.7-1.2,3.1-1.2c1.5,0,2.5,0.4,3.1,1.1s0.9,1.8,0.9,3.1v1.5h-2.5v-1.7c0-1.1-0.5-1.6-1.4-1.6
			c-1,0-1.4,0.6-1.4,1.7v8.9c0,1.1,0.5,1.7,1.4,1.7s1.4-0.5,1.4-1.6v-2.9h-1.4V34.8z"/>
		<path class="st1" d="M75.4,41.7c-1.4,0-2.5-0.4-3.2-1.2s-1.1-1.9-1.1-3.3v-8c0-1.4,0.4-2.5,1.1-3.3s1.8-1.2,3.2-1.2
			c1.4,0,2.5,0.4,3.2,1.2c0.7,0.8,1.1,1.9,1.1,3.3v8c0,1.4-0.4,2.4-1.1,3.3C77.8,41.3,76.8,41.7,75.4,41.7z M75.4,39.4
			c1,0,1.4-0.6,1.4-1.7v-8.9c0-1.1-0.5-1.7-1.4-1.7S74,27.7,74,28.8v8.9C73.9,38.8,74.4,39.4,75.4,39.4z"/>
		<path class="st1" d="M83.1,41.5h-2.6l3.1-16.6h3.2L90,41.5h-2.9l-0.5-3h-3L83.1,41.5z M85.1,29.6L84,36.2h2.2L85.1,29.6L85.1,29.6
			z"/>
		<path class="st1" d="M91.3,41.5V24.9H94v14.3h3.3v2.3H91.3z"/>
		<path class="st1" d="M102.5,41.7c-1.4,0-2.4-0.3-3-1s-1-1.6-1-2.8v-2.2h2.6V38c0,1,0.5,1.5,1.4,1.5c0.8,0,1.3-0.5,1.3-1.5v-0.6
			c0-0.5-0.1-0.9-0.3-1.2c-0.2-0.3-0.5-0.7-1-1.2l-1.6-1.6c-0.9-0.8-1.5-1.6-1.8-2.2s-0.5-1.4-0.5-2.3v-0.6c0-1.1,0.3-2,1-2.6
			c0.7-0.7,1.6-1,2.9-1c1.4,0,2.3,0.3,3,1c0.6,0.6,0.9,1.6,0.9,2.8v1.3h-2.5v-1.4c0-0.9-0.4-1.4-1.3-1.4s-1.3,0.5-1.3,1.4v0.3
			c0,0.4,0.1,0.8,0.3,1.1c0.2,0.3,0.5,0.7,1,1.2l1.8,1.8c0.8,0.8,1.4,1.6,1.8,2.1c0.3,0.6,0.5,1.3,0.5,2.2v0.8c0,1.2-0.3,2.1-1,2.8
			C104.8,41.3,103.8,41.7,102.5,41.7z"/>
	</g>
</g>
</svg>
